<svg width="27" height="27" viewBox="0 0 27 27" fill="none" xmlns="http://www.w3.org/2000/svg">
<path d="M18.6766 8.25329C18.5973 8.25078 18.5155 8.25204 18.4942 8.25456C18.4728 8.25833 18.3973 8.27217 18.3244 8.28601C18.2514 8.3011 18.1105 8.33759 18.0099 8.36778C17.9092 8.39672 17.7419 8.45081 17.6388 8.48603C17.5344 8.52125 17.308 8.60428 17.1356 8.66844C16.9621 8.73385 16.5947 8.87727 16.318 8.98672C16.0413 9.09742 15.6387 9.2597 15.4249 9.34776C15.2111 9.43582 14.6664 9.66101 14.2173 9.8472C13.767 10.0346 12.8563 10.4221 12.1921 10.7064C11.528 10.992 10.6248 11.3807 10.1858 11.5719C9.74677 11.7619 8.69895 12.216 7.85868 12.5808C7.0184 12.9444 6.26493 13.2715 6.18568 13.3067C6.10643 13.3407 5.99322 13.3948 5.9341 13.4262C5.87498 13.4577 5.77309 13.5181 5.70768 13.5621C5.64227 13.6049 5.5517 13.6791 5.50516 13.7269C5.44604 13.7898 5.4146 13.8351 5.39447 13.8892C5.37183 13.947 5.36679 13.9823 5.37057 14.0401C5.37434 14.0917 5.38818 14.137 5.41334 14.1835C5.43347 14.22 5.47497 14.2741 5.50642 14.303C5.53786 14.332 5.60202 14.3798 5.65107 14.4075C5.70013 14.4364 5.7907 14.4804 5.85234 14.5056C5.91397 14.532 6.02215 14.5723 6.09134 14.5962C6.16052 14.6201 6.41587 14.7018 6.65739 14.7773C6.90016 14.8541 7.20205 14.9459 7.33036 14.9836C7.45867 15.0201 7.65112 15.073 7.75805 15.1006C7.86496 15.1283 7.99201 15.1598 8.04107 15.1711C8.09013 15.1837 8.14044 15.195 8.15428 15.1988C8.16812 15.2013 8.2612 15.2189 8.36183 15.2365C8.4763 15.2566 8.61719 15.2717 8.7392 15.2755C8.89266 15.2818 8.96185 15.278 9.06625 15.2604C9.13921 15.2491 9.26123 15.2189 9.3367 15.195C9.41217 15.1698 9.53167 15.1245 9.60086 15.0931C9.67004 15.0604 9.78577 15.0012 9.85873 14.9597C9.93169 14.9195 10.2311 14.7245 10.5254 14.527C10.8198 14.3295 11.2273 14.0552 11.4311 13.9168L11.5134 13.8615C11.7238 13.7199 12.0337 13.5114 12.2487 13.3658C12.494 13.1998 13.1657 12.7507 13.7393 12.3682C14.3142 11.9858 14.8274 11.6449 14.8815 11.6109C14.9343 11.577 15.0513 11.5027 15.1394 11.4461C15.2274 11.3895 15.362 11.3065 15.4375 11.2612C15.513 11.2159 15.601 11.1744 15.6325 11.1668C15.6639 11.1593 15.7092 11.153 15.7331 11.153C15.757 11.153 15.7998 11.1643 15.8274 11.1756C15.8627 11.192 15.8853 11.2134 15.9017 11.2486C15.9155 11.275 15.9281 11.3254 15.9318 11.3606C15.9369 11.4197 15.9331 11.4285 15.8803 11.499C15.8501 11.5405 15.7834 11.6197 15.7331 11.6751C15.6828 11.7304 15.5306 11.8877 15.3947 12.0261C15.2589 12.1632 14.962 12.455 14.7331 12.6739C14.5041 12.8941 14.2136 13.1708 14.0852 13.2916C13.9569 13.4111 13.8123 13.547 13.7645 13.5935C13.7167 13.6388 13.6286 13.7219 13.5695 13.7772C13.5104 13.8313 13.3833 13.9496 13.2865 14.0401C13.1896 14.1307 13.0676 14.2439 13.016 14.2917C12.9632 14.3395 12.8412 14.4528 12.7456 14.5433C12.6487 14.6327 12.4789 14.7937 12.3682 14.9019C12.2575 15.0088 12.0688 15.1925 11.9493 15.3107C11.8286 15.4277 11.699 15.5648 11.6588 15.6126C11.6198 15.6605 11.5657 15.7372 11.538 15.7825C11.5116 15.8278 11.4789 15.8944 11.4663 15.9297C11.4537 15.9661 11.4399 16.0265 11.4361 16.0618C11.4311 16.0995 11.4349 16.1624 11.4437 16.2039C11.4525 16.2454 11.4764 16.3133 11.4978 16.3549C11.5179 16.3964 11.5594 16.4618 11.5883 16.4995C11.6173 16.5373 11.6776 16.6027 11.7217 16.6442C11.7657 16.6857 11.8475 16.7549 11.9028 16.7964C11.9582 16.8379 12.1846 16.9939 12.406 17.1411C12.6273 17.2883 12.8098 17.4141 12.8123 17.4204C12.8135 17.4254 12.8211 17.4305 12.8274 17.4305C12.8336 17.4305 13.0651 17.5839 13.3406 17.7726C13.6148 17.9601 14.1368 18.3123 14.5004 18.5539C14.8639 18.7967 15.2626 19.0659 15.3872 19.1539C15.5117 19.242 15.6991 19.3703 15.8023 19.4382C15.9067 19.5062 16.0539 19.593 16.1293 19.632C16.2048 19.671 16.3168 19.7213 16.3784 19.7427C16.4388 19.7653 16.5444 19.7943 16.6136 19.8081C16.6979 19.8244 16.7885 19.8333 16.8878 19.8333C16.9809 19.8333 17.0627 19.8257 17.1105 19.8131C17.152 19.8018 17.2111 19.7792 17.2426 19.7641C17.274 19.7477 17.3281 19.71 17.3646 19.6798C17.3998 19.6496 17.4614 19.5854 17.5004 19.5376C17.5394 19.4898 17.6036 19.3816 17.6451 19.2986C17.6866 19.2156 17.7394 19.0885 17.7633 19.0156C17.7872 18.9426 17.8212 18.8269 17.8388 18.7577C17.8564 18.6885 17.9017 18.4645 17.9394 18.2607C17.9772 18.0569 18.0287 17.7764 18.0539 17.638C18.0778 17.4996 18.1067 17.3386 18.1168 17.2795C18.1269 17.2204 18.1495 17.0958 18.1671 17.0027C18.1835 16.9096 18.2288 16.6543 18.2665 16.4366C18.3037 16.2221 18.3617 15.8804 18.3971 15.6719L18.3974 15.6698L18.3986 15.663C18.4338 15.4554 18.474 15.2227 18.4879 15.1472C18.5017 15.0717 18.5407 14.8327 18.5759 14.6188C18.6112 14.405 18.659 14.1093 18.6828 13.9646C18.7068 13.82 18.7483 13.5558 18.7772 13.3797C18.8049 13.2036 18.8338 13.0249 18.8401 12.9834C18.8451 12.9419 18.8741 12.7607 18.9017 12.5808C18.9294 12.4009 18.9583 12.2173 18.9646 12.172C18.9709 12.1267 18.9973 11.9543 19.0225 11.7883C19.0476 11.6222 19.0703 11.4725 19.0728 11.4549C19.0753 11.4373 19.1005 11.2599 19.1281 11.0587C19.1558 10.8574 19.1923 10.5831 19.2099 10.4485C19.2275 10.3139 19.2489 10.1579 19.2552 10.1026C19.2627 10.0472 19.2791 9.90507 19.2929 9.78807C19.3068 9.66982 19.3244 9.52011 19.3332 9.45469C19.342 9.38928 19.3495 9.22197 19.3495 9.08359C19.3495 8.89237 19.3432 8.80808 19.3269 8.73134C19.3156 8.67599 19.2892 8.59674 19.269 8.55523C19.2477 8.5112 19.2061 8.45458 19.1684 8.41935C19.1332 8.38664 19.0741 8.34639 19.0388 8.32878C19.0024 8.31243 18.9382 8.28979 18.8967 8.27846C18.8539 8.26589 18.7571 8.25581 18.6766 8.25329Z" fill="#1D1D1D"/>
<path d="M14.1544 0.51655C13.9607 0.50397 13.6727 0.498929 13.3494 0.500187C13.0726 0.500187 12.7645 0.506481 12.6638 0.511513C12.5632 0.517803 12.3544 0.534159 12.1984 0.547997C12.0424 0.563093 11.811 0.588255 11.6827 0.605867C11.5544 0.622222 11.3644 0.65115 11.2613 0.668762C11.1569 0.685116 10.9455 0.725377 10.7896 0.756827C10.6336 0.788277 10.387 0.843623 10.2424 0.881363C10.0977 0.917845 9.89646 0.971941 9.79583 1.00088C9.6952 1.02981 9.50903 1.08768 9.38073 1.1292C9.25242 1.17071 9.02852 1.2487 8.88386 1.30279C8.7392 1.35689 8.50398 1.44999 8.36183 1.51037C8.21969 1.57076 7.97315 1.68272 7.81465 1.75946C7.65616 1.83619 7.44609 1.94061 7.34923 1.99219C7.25237 2.04377 7.09388 2.13183 6.99702 2.18718C6.90016 2.24253 6.73286 2.34192 6.62594 2.40733C6.51902 2.47275 6.32656 2.59729 6.19826 2.68409C6.06995 2.7709 5.87246 2.91053 5.75799 2.99356C5.64353 3.07658 5.46239 3.21623 5.35547 3.30178C5.24855 3.38732 5.08628 3.52192 4.99697 3.59866C4.90766 3.6754 4.75923 3.80623 4.66992 3.888C4.58061 3.96977 4.40073 4.14212 4.27243 4.27044C4.14412 4.40001 3.97179 4.57865 3.89002 4.66797C3.80826 4.75729 3.67744 4.90574 3.60071 4.99506C3.52398 5.08437 3.38939 5.24665 3.30385 5.35358C3.21831 5.46051 3.07869 5.64166 2.99567 5.75614C2.91265 5.87062 2.77301 6.06813 2.68622 6.19644C2.59942 6.32476 2.47489 6.51723 2.40948 6.62416C2.34407 6.73109 2.2447 6.89841 2.18935 6.99528C2.134 7.09214 2.03966 7.26198 1.9818 7.37268C1.92268 7.48339 1.81576 7.69599 1.74531 7.84443C1.67487 7.99287 1.5755 8.21052 1.52518 8.32877C1.47487 8.44702 1.39687 8.64201 1.35033 8.76278C1.30379 8.88355 1.22581 9.09867 1.17801 9.24083C1.12895 9.38298 1.05347 9.62326 1.00945 9.77548C0.965421 9.9277 0.903779 10.1541 0.872332 10.2787C0.842142 10.4032 0.79435 10.6158 0.766676 10.7504C0.737745 10.885 0.697484 11.0976 0.677358 11.2222C0.655974 11.3467 0.624527 11.553 0.608174 11.6814C0.590564 11.8097 0.565405 12.0386 0.551569 12.1908C0.537732 12.3431 0.520126 12.572 0.512579 12.7003C0.506289 12.8287 0.5 13.1344 0.5 13.3797C0.5 13.625 0.50629 13.9332 0.512579 14.0653C0.520126 14.1974 0.537732 14.4288 0.551569 14.5811C0.565406 14.7333 0.590563 14.9622 0.608174 15.0906C0.624526 15.2189 0.658495 15.4365 0.682395 15.5749C0.706295 15.7133 0.742773 15.9108 0.764158 16.0152C0.785542 16.1184 0.828306 16.3083 0.859753 16.4366C0.8912 16.5649 0.946548 16.7801 0.985542 16.9147C1.02328 17.0493 1.10253 17.3009 1.16039 17.4745C1.21826 17.6468 1.30002 17.8796 1.34279 17.9903C1.38556 18.101 1.47109 18.3136 1.53524 18.462C1.59814 18.6105 1.7277 18.8885 1.82204 19.0784C1.91638 19.2684 2.03841 19.5062 2.09375 19.6068C2.15036 19.7074 2.24721 19.8773 2.31137 19.9842C2.37552 20.0911 2.48245 20.2635 2.54911 20.3679C2.61578 20.4711 2.73277 20.6447 2.80698 20.7516C2.88245 20.8585 3.00321 21.0258 3.07616 21.1227C3.14912 21.2196 3.27491 21.3806 3.35542 21.4812C3.43718 21.5819 3.57303 21.7429 3.65731 21.8398C3.74159 21.9366 3.90889 22.1203 4.02964 22.2486C4.14914 22.3769 4.33155 22.5606 4.43344 22.6587C4.53532 22.7556 4.68124 22.8915 4.75797 22.9606C4.8347 23.0286 4.95294 23.1343 5.02213 23.1934C5.09131 23.2525 5.20704 23.3494 5.27999 23.4085C5.35295 23.4676 5.5278 23.6022 5.66994 23.7092C5.81208 23.8161 6.05486 23.9884 6.21084 24.0928C6.36681 24.1973 6.60707 24.3507 6.74544 24.4338C6.88381 24.5168 7.08633 24.6338 7.19576 24.6942C7.30394 24.7533 7.51024 24.8615 7.6549 24.9332C7.7983 25.0049 8.01466 25.1068 8.13541 25.1609C8.25617 25.215 8.43731 25.2917 8.53794 25.3333C8.63857 25.3748 8.85116 25.4553 9.00965 25.5131C9.16814 25.5697 9.40085 25.649 9.52539 25.6868C9.64992 25.7257 9.8147 25.7748 9.89017 25.7962C9.96565 25.8188 10.1644 25.8692 10.3304 25.9094C10.4965 25.9509 10.7342 26.0038 10.8588 26.0277C10.9833 26.0528 11.1707 26.0868 11.2739 26.1031C11.3783 26.1208 11.5254 26.1434 11.6009 26.1535C11.6764 26.1648 11.8412 26.1849 11.9657 26.1988C12.0902 26.2113 12.3053 26.2315 12.4437 26.2428C12.6261 26.2566 12.8827 26.2617 13.3808 26.2617C13.8676 26.2617 14.1393 26.2566 14.318 26.2428C14.4563 26.2327 14.6513 26.2151 14.7519 26.2051C14.8526 26.1937 15.0199 26.1736 15.123 26.1598C15.2274 26.1459 15.4136 26.117 15.5381 26.0969C15.6626 26.0755 15.8752 26.0365 16.0098 26.0088C16.1444 25.9811 16.3683 25.9295 16.5067 25.8956C16.6451 25.8604 16.8627 25.8012 16.991 25.7647C17.1193 25.7283 17.3256 25.6641 17.4501 25.6226C17.5746 25.5811 17.7696 25.5119 17.8841 25.4691C17.9986 25.4263 18.1847 25.3534 18.2992 25.3056C18.4137 25.259 18.5948 25.181 18.7017 25.132C18.8086 25.0829 19.0074 24.9886 19.142 24.9206C19.2766 24.854 19.4728 24.752 19.576 24.6954C19.6804 24.6376 19.8665 24.5306 19.9911 24.4564C20.1156 24.3822 20.3169 24.2564 20.4376 24.1771C20.5584 24.0966 20.7508 23.9658 20.8653 23.884C20.9798 23.8035 21.1546 23.6727 21.2552 23.5947C21.3559 23.5167 21.4968 23.4047 21.5697 23.3443C21.6427 23.2852 21.7898 23.1594 21.8968 23.0651C22.0037 22.9707 22.1848 22.8047 22.2993 22.6939C22.4138 22.5845 22.5936 22.4046 22.7006 22.2927C22.8075 22.1819 22.976 21.9983 23.0767 21.8838C23.1773 21.7693 23.3358 21.5794 23.4301 21.4624C23.5245 21.3454 23.6691 21.1579 23.7522 21.0472C23.8352 20.9365 23.9937 20.7101 24.1044 20.544C24.2163 20.378 24.3698 20.1377 24.4453 20.0094C24.522 19.8811 24.6339 19.6873 24.6931 19.5779C24.7534 19.4697 24.8528 19.2785 24.9157 19.1539C24.9786 19.0294 25.0717 18.8331 25.1245 18.7161C25.1773 18.6004 25.2591 18.4129 25.3057 18.2985C25.3535 18.184 25.4264 17.9978 25.4692 17.8833C25.512 17.7689 25.5811 17.5739 25.6227 17.4493C25.6642 17.3248 25.7283 17.116 25.7673 16.9839C25.805 16.8518 25.8629 16.6341 25.8969 16.4995C25.9296 16.3649 25.9799 16.1435 26.0076 16.0089C26.0365 15.8743 26.0755 15.6617 26.0969 15.5371C26.117 15.4126 26.1459 15.2252 26.1598 15.122C26.1736 15.0176 26.1937 14.8515 26.2051 14.7509C26.2151 14.6502 26.2327 14.4553 26.2428 14.3169C26.2566 14.1382 26.2617 13.8665 26.2617 13.3797C26.2617 12.8878 26.2566 12.6249 26.2428 12.4487C26.2327 12.3141 26.2126 12.0965 26.1988 11.9644C26.1837 11.8323 26.1585 11.6298 26.1409 11.5115C26.1233 11.3933 26.1007 11.2499 26.0906 11.1907C26.0805 11.1316 26.0491 10.9681 26.0214 10.8259C25.9925 10.6838 25.9396 10.4435 25.9019 10.2913C25.8642 10.139 25.8038 9.91512 25.7698 9.79435C25.7346 9.67358 25.6642 9.44965 25.6138 9.29743C25.5635 9.14521 25.4818 8.91625 25.4327 8.78794C25.3824 8.65962 25.2906 8.43318 25.2264 8.28474C25.1635 8.1363 25.0428 7.87588 24.9585 7.70605C24.8755 7.53622 24.756 7.30727 24.6956 7.19657C24.6352 7.08586 24.517 6.88206 24.4339 6.74367C24.3509 6.60529 24.2113 6.38389 24.1245 6.25306C24.0364 6.12223 23.9119 5.93982 23.8465 5.8505C23.7811 5.76118 23.6528 5.59134 23.5622 5.47309C23.4704 5.35484 23.3245 5.17369 23.2364 5.07053C23.1484 4.96611 22.9999 4.79754 22.9056 4.69312C22.81 4.58997 22.6314 4.40253 22.5068 4.27798C22.3823 4.15344 22.2075 3.98361 22.1169 3.90184C22.0263 3.81881 21.8741 3.68295 21.7773 3.59992C21.6804 3.5169 21.5081 3.37474 21.3936 3.28291C21.2791 3.19233 21.093 3.05017 20.9785 2.96714L20.9594 2.9535C20.8465 2.87281 20.6958 2.76516 20.6137 2.70925C20.5269 2.65013 20.3709 2.54822 20.2678 2.48281C20.1634 2.41739 19.9911 2.31298 19.8841 2.25008C19.7772 2.18718 19.6238 2.10038 19.5445 2.0576C19.4653 2.01357 19.2502 1.90413 19.0665 1.81356C18.8829 1.72172 18.6112 1.59591 18.4627 1.53301C18.3143 1.46885 18.1017 1.38332 17.991 1.34054C17.8803 1.29777 17.6652 1.22103 17.513 1.16945C17.3608 1.11787 17.1092 1.03862 16.9532 0.994586C16.7973 0.949298 16.5658 0.887651 16.4375 0.857458C16.3092 0.826008 16.1079 0.780729 15.991 0.756827C15.874 0.732925 15.6752 0.696438 15.5507 0.675052C15.4262 0.653666 15.2199 0.62348 15.0916 0.605867C14.9633 0.588255 14.7683 0.565604 14.6576 0.555539C14.5469 0.544217 14.3205 0.526614 14.1544 0.51655Z" stroke="#1D1D1D"/>
</svg>
