<svg width="170" height="129" viewBox="0 0 170 129" fill="none" xmlns="http://www.w3.org/2000/svg">
<path d="M117.96 3.97093C118.673 2.92304 120.045 1.5994 120.978 1.04788C121.855 0.496366 123.282 0 124.16 0C124.983 0 126.19 0.220607 126.903 0.496366C127.561 0.716973 128.933 1.76486 129.975 2.81274C131.018 3.86062 132.499 6.0667 133.212 7.72125C134.419 10.4237 134.529 11.3061 134.365 15.7183C134.145 19.5789 133.816 21.2886 132.774 23.4395C131.951 25.0389 130.634 26.6935 129.482 27.4656C128.329 28.1826 126.738 28.6789 125.531 28.6789C124.379 28.6789 122.788 28.348 121.965 27.9068C121.087 27.4656 119.88 26.528 119.222 25.811C118.563 25.1492 117.411 23.1637 116.643 21.5092C115.546 19.1928 115.217 17.5934 115.217 14.6152C115.217 12.5195 115.546 9.65156 115.93 8.27277C116.314 6.89397 117.247 4.96366 117.96 3.97093Z" fill="#F9F9F9"/>
<path d="M144.021 9.54126C145.502 8.21761 147.752 6.78367 148.959 6.34245C150.166 5.90124 152.031 5.68063 153.074 5.79094C154.116 5.95639 155.543 6.45276 156.201 6.89397C156.914 7.33519 157.957 8.76913 158.56 10.0376C159.164 11.3613 159.657 13.2916 159.657 14.3395C159.657 15.3873 159.273 17.7589 158.834 19.5789C158.341 21.3989 157.243 23.991 156.365 25.3698C155.543 26.7486 154.006 28.5135 152.964 29.2856C151.976 30.0577 150.33 31.1056 149.398 31.6571C148.41 32.1535 146.545 32.5396 145.283 32.5396C143.911 32.5396 142.155 32.0432 141.113 31.4365C140.18 30.8298 138.973 29.5062 138.479 28.5135C137.821 27.1898 137.656 25.7559 137.821 22.888C137.986 20.2407 138.589 17.9243 139.687 15.4977C140.784 13.071 142.155 11.1958 144.021 9.54126Z" fill="#F9F9F9"/>
<path d="M98.2085 22.9431C99.2509 21.1783 100.842 19.248 101.775 18.6413C102.872 17.9243 103.969 17.7037 105.067 17.9243C105.944 18.0898 107.316 18.6413 108.084 19.248C108.852 19.7995 110.224 21.454 111.102 22.888C112.583 25.2595 112.748 26.1419 112.912 30.5541C113.077 34.9111 112.912 35.9038 111.815 38.0547C111.102 39.4335 109.675 41.0881 108.633 41.805C107.59 42.4669 105.944 43.0735 105.067 43.0735C104.189 43.0735 102.543 42.4669 101.5 41.7499C100.348 40.9778 98.9218 39.2129 97.9342 37.2275C96.5626 34.525 96.2882 33.3668 96.2882 30.1129C96.3431 26.6935 96.5626 25.811 98.2085 22.9431Z" fill="#F9F9F9"/>
<path d="M155.652 34.7456C156.53 33.6977 158.396 32.2638 159.712 31.602C161.029 30.885 163.004 30.3335 164.047 30.3335C165.089 30.2783 166.57 30.7747 167.339 31.3262C168.107 31.8777 169.039 33.0911 169.423 33.9735C169.862 34.9662 170.082 36.9517 169.972 39.2129C169.862 41.8602 169.369 43.6251 168.161 46.0517C167.174 48.0372 165.583 50.0227 164.211 51.1257C162.894 52.1184 160.864 53.1663 159.657 53.4972C157.902 53.9384 157.079 53.8833 155.433 53.056C154.335 52.5596 152.909 51.4015 152.305 50.5742C151.428 49.416 151.153 48.2027 151.208 45.8863C151.245 43.7905 151.702 41.7315 152.58 39.7093C153.348 38.0547 154.72 35.7935 155.652 34.7456Z" fill="#F9F9F9"/>
<path d="M117.411 42.9632C120.868 40.702 124.928 38.4408 126.464 37.8893C128.329 37.2826 130.03 37.062 131.676 37.2826C133.048 37.4481 135.133 38.165 136.34 38.882C137.547 39.5438 139.467 41.4741 140.619 43.0735C141.771 44.7281 144.57 48.9196 146.819 52.3942C149.068 55.8688 151.537 60.0603 152.251 61.6045C153.019 63.2039 153.897 65.8512 154.171 67.3955C154.61 69.6567 154.555 70.9252 153.951 73.0761C153.458 74.7858 152.415 76.4955 151.318 77.5434C150.33 78.5361 148.959 79.584 148.3 79.9149C147.587 80.2458 145.886 80.5216 144.46 80.5216C142.375 80.5216 140.564 79.9149 136.065 77.7089C132.883 76.1646 129.317 74.5101 128.11 74.0688C126.629 73.4622 122.733 73.0761 115.765 72.8555C107.316 72.5246 105.231 72.304 103.421 71.4216C102.214 70.8149 100.787 69.4912 100.129 68.3882C99.3607 67.0094 99.0315 65.4652 99.0315 62.873C99.0315 59.95 99.3058 58.7918 100.513 56.8063C101.281 55.4275 102.927 53.4421 104.079 52.339C105.231 51.236 107.261 49.5815 108.633 48.699C110.005 47.7614 113.955 45.1693 117.411 42.9632Z" fill="#F9F9F9"/>
<path d="M38.3507 53.4972C39.2285 52.1184 40.7648 50.4639 41.7523 49.8021C42.9594 48.9748 44.4407 48.5336 45.9769 48.5336C47.8972 48.5336 48.6653 48.8645 50.5307 50.5742C51.9024 51.8978 53.1643 53.773 53.8226 55.5378C54.5359 57.5233 54.8651 59.8397 54.8651 62.7076C54.8651 66.127 54.5908 67.6161 53.4386 70.0428C52.6705 71.6973 51.5183 73.6828 50.8599 74.3446C50.2016 75.0616 48.9945 75.9992 48.1715 76.4404C47.2937 76.8816 45.7026 77.2125 44.6053 77.2125C43.3434 77.2125 41.7523 76.7161 40.6002 75.9992C39.448 75.227 38.1312 73.5725 37.3083 71.9731C36.3207 69.8773 35.9366 68.0573 35.772 64.5276C35.6074 61.9354 35.772 58.9573 36.1012 57.9094C36.4853 56.8615 37.4729 54.876 38.3507 53.4972Z" fill="#F9F9F9"/>
<path d="M11.6863 58.0197C12.18 57.0821 13.4419 55.7584 14.4295 55.0966C15.7463 54.2694 16.7339 54.0487 18.5444 54.2694C19.8063 54.49 21.7814 55.0966 22.9336 55.6481C24.0309 56.2548 25.8963 57.6888 26.9936 58.8469C28.0909 60.0051 29.682 62.4318 30.5599 64.2518C31.6023 66.5682 32.0961 68.7191 32.2607 71.4216C32.4253 74.4549 32.2607 75.6682 31.4926 77.1022C30.889 78.1501 29.7369 79.4186 28.8042 80.0252C27.8715 80.5768 26.1158 81.0731 24.8539 81.0731C23.5371 81.0731 21.562 80.5768 20.4647 80.0252C19.3125 79.4737 17.3922 78.0398 16.2401 76.8816C15.033 75.6682 13.3322 73.1313 12.3995 71.1458C11.0827 68.2779 10.7536 66.7888 10.7536 63.7003C10.7536 61.053 11.0279 59.2882 11.6863 58.0197Z" fill="#F9F9F9"/>
<path d="M58.98 71.3664C59.9127 69.8773 61.5038 68.1124 62.5462 67.3955C64.0276 66.4027 64.9054 66.1821 66.3868 66.4027C67.4292 66.5682 68.8557 67.1197 69.5689 67.5609C70.2273 68.0021 71.4343 69.8222 72.2573 71.5319C73.4095 74.0137 73.7387 75.6131 73.7387 78.6464C73.7935 81.9004 73.5192 83.0034 72.1476 85.761C71.2697 87.5259 69.7884 89.4562 68.9654 90.118C67.923 90.8901 66.6062 91.2762 65.0151 91.2762C63.424 91.2762 62.1073 90.8901 61.0648 90.118C60.2419 89.4562 59.0348 88.1325 58.4313 87.0847C57.5535 85.5404 57.334 84.2168 57.334 79.6392C57.334 74.3997 57.4437 73.9585 58.98 71.3664Z" fill="#F9F9F9"/>
<path d="M0.822976 82.1761C1.2619 81.2386 2.1946 80.1355 2.90785 79.6943C3.56623 79.2531 5.10245 78.867 6.30948 78.867C7.79084 78.867 9.32706 79.3634 10.973 80.4113C12.3446 81.2937 13.9906 82.6174 14.649 83.3343C15.3074 84.0513 16.4595 86.0368 17.2276 87.6913C17.9957 89.3459 18.7639 91.938 18.9285 93.4823C19.2028 95.5229 19.0382 96.7362 18.2701 98.115C17.7214 99.1629 16.679 100.487 15.9109 101.093C15.0879 101.7 13.6065 102.141 12.3446 102.141C11.1376 102.141 9.32706 101.755 8.39436 101.259C7.40679 100.762 5.59624 99.3284 4.33434 98.0047C3.12731 96.7362 1.64595 94.3647 1.04244 92.7653C0.493786 91.221 0 88.5186 0 86.8641C0 85.2095 0.384056 83.0586 0.822976 82.1761Z" fill="#F9F9F9"/>
<path d="M32.4253 88.2428C33.4677 87.5259 35.1685 86.5883 36.211 86.2022C37.2534 85.8162 39.2285 85.5956 40.6002 85.7059C41.9718 85.8162 44.4407 86.5883 46.0867 87.4156C47.7326 88.2428 50.2016 89.7319 51.5732 90.7247C52.9448 91.6623 56.0173 93.7029 58.4313 95.192C60.7905 96.6811 64.1373 99.1077 65.7284 100.652C67.3743 102.141 69.2397 104.402 69.8433 105.616C70.6662 107.16 70.9954 108.87 71.0503 111.407C71.0503 113.999 70.776 115.488 69.953 116.867C69.3495 117.914 67.8681 119.238 66.6611 119.9C64.7957 120.838 63.04 121.058 54.3164 121.389C48.7202 121.555 43.6726 121.941 43.0691 122.161C42.4656 122.382 39.1188 123.871 35.6623 125.525C32.2058 127.18 28.475 128.669 27.4325 128.835C26.3901 129.055 24.5796 129.055 23.4823 128.835C22.0558 128.614 20.6293 127.732 19.0382 126.132C17.3374 124.478 16.4595 123.099 16.0755 121.334C15.6914 119.679 15.6914 117.804 16.0206 115.819C16.2949 114.164 17.2276 111.407 17.9957 109.752C18.7639 108.097 20.5744 104.954 22.0009 102.858C23.4274 100.707 25.8963 96.9017 27.5423 94.3095C29.1882 91.7174 31.3828 89.015 32.4253 88.2428Z" fill="#F9F9F9"/>
</svg>
