<svg width="60" height="38" viewBox="0 0 60 38" fill="none" xmlns="http://www.w3.org/2000/svg">
<rect x="0.5" y="0.5" width="59" height="37" rx="18.5" stroke="#1D1D1D"/>
<path d="M39.2153 18.5014C39.4914 18.5014 39.7153 18.7253 39.7152 19.0014C39.7152 19.2775 39.4914 19.5014 39.2152 19.5014L39.2152 19.0014L39.2153 18.5014ZM20.4302 19.3539C20.235 19.1587 20.235 18.8421 20.4303 18.6468L23.6124 15.465C23.8077 15.2698 24.1243 15.2698 24.3195 15.465C24.5148 15.6603 24.5147 15.9769 24.3195 16.1722L21.4909 19.0004L24.3192 21.829C24.5144 22.0243 24.5144 22.3409 24.3191 22.5361C24.1239 22.7314 23.8073 22.7314 23.612 22.5361L20.4302 19.3539ZM39.2152 19.0014L39.2152 19.5014L20.7838 19.5004L20.7838 19.0004L20.7838 18.5004L39.2153 18.5014L39.2152 19.0014Z" fill="#1D1D1D"/>
</svg>
