<svg width="23" height="25" viewBox="0 0 23 25" fill="none" xmlns="http://www.w3.org/2000/svg">
<path fill-rule="evenodd" clip-rule="evenodd" d="M6.1461 0C6.33068 0 6.5268 0.0403967 6.65947 0.109648C6.7806 0.173129 6.94788 0.294319 7.0344 0.386654C7.12092 0.473219 7.23052 0.646348 7.27666 0.767538C7.34588 0.923354 7.36895 1.18305 7.36895 2.4238H14.7522V1.70243C14.7522 1.18305 14.7753 0.923354 14.8445 0.761767C14.8906 0.646348 15.0002 0.473219 15.0868 0.386654C15.1733 0.294319 15.3406 0.173129 15.4559 0.109648C15.5886 0.0461677 15.7962 0 15.9635 0C16.1193 0 16.35 0.0403967 16.4654 0.0923354C16.5865 0.138503 16.748 0.236609 16.8172 0.305861C16.8922 0.375112 17.0133 0.536699 17.0768 0.66366C17.1806 0.854102 17.2037 1.01569 17.2441 2.39495L18.1439 2.43535C18.6803 2.45266 19.1879 2.51037 19.3783 2.56231C19.5629 2.61425 19.8743 2.73544 20.0705 2.82777C20.2723 2.92588 20.5665 3.11055 20.7338 3.24905C20.9011 3.38178 21.1549 3.63571 21.2991 3.80883C21.4433 3.98196 21.6452 4.31091 21.7548 4.5302C21.8644 4.7495 21.9913 5.12461 22.0432 5.35545C22.1239 5.72479 22.1355 6.64815 22.1355 13.5156C22.1355 20.0945 22.1182 21.3295 22.0489 21.67C22.0028 21.895 21.8586 22.2932 21.7259 22.5645C21.5356 22.9511 21.3856 23.1531 21.0164 23.5167C20.6761 23.8572 20.4339 24.0361 20.1166 24.1919C19.8801 24.3131 19.5167 24.4458 19.3091 24.492C18.9803 24.5728 17.9189 24.5843 11.0606 24.5843C4.20223 24.5843 3.14088 24.5728 2.8121 24.492C2.60444 24.4458 2.24105 24.3131 2.00455 24.1919C1.6873 24.0361 1.44504 23.8572 1.10472 23.5167C0.735555 23.1531 0.585583 22.9511 0.395233 22.5645C0.262565 22.2932 0.118361 21.8835 0.0722154 21.6526C-0.00277084 21.2948 -0.0143072 20.1233 0.0145337 5.39585L0.176042 4.96303C0.262565 4.72642 0.418306 4.3917 0.522133 4.21857C0.620192 4.05121 0.885527 3.72804 1.11049 3.50874C1.4162 3.20288 1.64116 3.0413 2.03339 2.85085C2.37948 2.67773 2.70827 2.56231 3.01398 2.51037C3.26778 2.4642 3.79269 2.42957 4.88864 2.4238L4.90594 1.65627C4.91748 1.00992 4.94055 0.859873 5.04438 0.66366C5.10783 0.536699 5.22896 0.375112 5.30395 0.305861C5.37316 0.236609 5.5289 0.138503 5.6385 0.0923354C5.7481 0.0461677 5.97882 0.00577096 6.14033 0L6.1461 0ZM2.85247 5.23426C2.76018 5.3266 2.63905 5.49973 2.58137 5.62669C2.48331 5.84021 2.47177 6.04797 2.47177 8.466V11.0802H19.6609C19.6609 6.07105 19.6494 5.84021 19.5513 5.62669C19.4936 5.49973 19.3552 5.30928 19.2398 5.20541C19.1187 5.1073 18.9284 4.99765 18.8072 4.96303C18.6919 4.93417 18.2881 4.90532 17.9132 4.90532H17.2383C17.2383 5.88638 17.2037 6.29612 17.1633 6.44616C17.1229 6.60198 17.0018 6.82128 16.8749 6.96555C16.7134 7.15022 16.5865 7.23678 16.3558 7.30027C16.1827 7.3522 15.9578 7.37529 15.8251 7.35798C15.6982 7.34066 15.479 7.2541 15.3348 7.16753C15.1444 7.05211 15.0291 6.91938 14.9137 6.69431C14.7637 6.39422 14.758 6.33074 14.758 5.63823V4.90532H7.37472C7.37472 6.33074 7.36895 6.39422 7.21898 6.68854C7.12092 6.87899 6.97672 7.05789 6.85558 7.13868C6.74599 7.2137 6.53833 7.30027 6.39413 7.33489C6.21532 7.37529 6.05381 7.37529 5.875 7.33489C5.71925 7.29449 5.50583 7.17908 5.33856 7.04057C5.12513 6.86167 5.05015 6.74625 4.98093 6.50387C4.92325 6.31343 4.89441 5.9614 4.89441 5.55166V4.90532C3.7177 4.91109 3.40622 4.93994 3.25048 4.99188C3.12358 5.03805 2.94476 5.1477 2.85247 5.23426Z" fill="white"/>
</svg>
