<svg width="42" height="42" viewBox="0 0 42 42" fill="none" xmlns="http://www.w3.org/2000/svg">
<path d="M40.7617 20.8789C40.7617 20.0759 40.7532 19.6884 40.7343 19.4482L40.7333 19.4443C40.7181 19.2411 40.6876 18.9056 40.666 18.6982L40.5771 17.998C40.549 17.8097 40.5127 17.5843 40.498 17.498C40.4841 17.4165 40.4365 17.1664 40.3906 16.9306C40.3452 16.7087 40.2641 16.3396 40.2079 16.1133C40.1509 15.883 40.0574 15.5377 40.0038 15.3467C39.951 15.1655 39.8408 14.8145 39.7617 14.5752C39.6849 14.3428 39.5573 13.9865 39.4833 13.7929C39.4037 13.5902 39.2617 13.2403 39.165 13.0166L39.163 13.0097C39.0704 12.7911 38.8825 12.3873 38.7529 12.126L38.7509 12.1211C38.6234 11.8601 38.436 11.5014 38.3447 11.334C38.2558 11.1711 38.0723 10.8539 37.9413 10.6357C37.8155 10.426 37.6001 10.0847 37.4677 9.88475L37.04 9.26464C36.9412 9.12974 36.7408 8.86434 36.5956 8.67479C36.4529 8.49103 36.2263 8.21052 36.0966 8.05858L36.0927 8.0537C35.962 7.89875 35.736 7.64175 35.5878 7.47753L34.9677 6.83104C34.7685 6.63181 34.4991 6.37159 34.372 6.25683L34.3671 6.25194C34.2264 6.12297 33.9875 5.90992 33.8408 5.78417C33.6954 5.65958 33.4292 5.43981 33.25 5.29589L32.6162 4.81249L32.5849 4.79101C32.3971 4.65683 32.1644 4.49094 32.0429 4.4082C31.9136 4.32011 31.6704 4.16051 31.5097 4.05859C31.3485 3.9577 31.0803 3.7959 30.916 3.69921C30.7508 3.60205 30.5129 3.46758 30.3974 3.40527L30.3867 3.39941C30.2824 3.34146 29.9544 3.17392 29.6552 3.02636L29.6503 3.02343C29.3685 2.88252 28.947 2.68831 28.7285 2.5957L28.7226 2.59277C28.4969 2.49519 28.1646 2.36081 27.9941 2.29492C27.8326 2.23251 27.4982 2.11338 27.2587 2.03222C27.0248 1.95296 26.6335 1.82948 26.4004 1.76367L26.3935 1.76172C26.1528 1.69184 25.7938 1.59684 25.6064 1.55273L25.5976 1.55078C25.4015 1.50272 25.0883 1.43249 24.9121 1.39648C24.7362 1.36054 24.425 1.30312 24.2295 1.26953C24.0444 1.23774 23.723 1.19018 23.5185 1.16211C23.323 1.13528 23.0221 1.10066 22.8603 1.08594L22.8486 1.08496C22.6874 1.06848 22.335 1.0412 22.0742 1.02539L22.0703 1.02441C21.7914 1.0063 21.3518 0.997986 20.834 0.999999H20.83C20.3871 0.999999 19.9069 1.01066 19.7685 1.01758C19.6124 1.0276 19.2944 1.05278 19.0527 1.07422L19.0517 1.07324C18.8037 1.09735 18.4498 1.13656 18.2636 1.16211L18.2549 1.16406C18.0623 1.1886 17.7681 1.23333 17.6133 1.25976L17.5996 1.26172C17.4537 1.28456 17.1298 1.34569 16.8779 1.39648C16.6376 1.44494 16.2572 1.5308 16.0459 1.58594L16.0381 1.58789C15.8119 1.64492 15.4962 1.73015 15.3457 1.77343C15.1975 1.81605 14.9071 1.906 14.7041 1.97168C14.5109 2.03419 14.1624 2.15565 13.9414 2.23828C13.7182 2.32173 13.3506 2.46733 13.1357 2.55859C12.9211 2.64977 12.5358 2.82381 12.293 2.9414C12.0374 3.06515 11.712 3.22783 11.5732 3.30175C11.427 3.37961 11.1789 3.51744 11.0283 3.60351C10.8816 3.68736 10.6187 3.84338 10.4521 3.94531C10.2943 4.04189 9.99582 4.23519 9.79784 4.36913C9.6013 4.5021 9.2898 4.72139 9.11034 4.85156C8.941 4.97439 8.66084 5.19046 8.49608 5.32226C8.33148 5.45395 8.07693 5.66479 7.94139 5.78124C7.80258 5.90051 7.56986 6.10561 7.43456 6.22948C7.30251 6.35039 7.02184 6.61973 6.82226 6.81933C6.61805 7.02563 6.3522 7.30186 6.23339 7.43163C6.10956 7.56691 5.90443 7.79961 5.78515 7.93846C5.6687 8.07402 5.45785 8.32853 5.32616 8.49315C5.19443 8.65784 4.97834 8.93799 4.85546 9.10741C4.72527 9.28693 4.50499 9.59839 4.37206 9.79491C4.23806 9.99304 4.04471 10.2915 3.94824 10.4492C3.8463 10.6158 3.69028 10.8786 3.60644 11.0254C3.52017 11.1764 3.37398 11.4401 3.28808 11.6045L3.28417 11.6123C3.19681 11.7759 3.03028 12.1065 2.92187 12.3349C2.8107 12.5692 2.65616 12.9088 2.58203 13.083C2.50634 13.2609 2.38428 13.5651 2.31152 13.7539C2.24108 13.9367 2.11957 14.2721 2.04687 14.4883L2.04394 14.4961C1.9707 14.7084 1.85346 15.0816 1.78613 15.3144C1.71737 15.5522 1.62094 15.9078 1.57324 16.0967C1.52682 16.2889 1.45387 16.6152 1.41211 16.8183L1.41015 16.8271C1.36653 17.0301 1.30405 17.3576 1.27441 17.541L1.27344 17.5508C1.24083 17.7406 1.19141 18.0603 1.16699 18.2519L1.16601 18.2617C1.1401 18.4505 1.10057 18.8058 1.0791 19.042C1.05781 19.2762 1.0304 19.6277 1.01855 19.8252L1.01953 19.8261C1.01044 20.0115 0.999999 20.4896 0.999999 20.8789C0.999999 21.2675 1.01037 21.7495 1.01953 21.9424C1.0313 22.1449 1.05779 22.5018 1.0791 22.7363L1.16601 23.5166L1.16699 23.5263C1.19103 23.7149 1.24404 24.0521 1.28125 24.2675C1.31884 24.4852 1.37532 24.7921 1.40722 24.9482C1.43941 25.1035 1.5065 25.4 1.55469 25.5966L1.74804 26.331L1.75 26.3398L1.87109 26.7402C1.91983 26.8958 1.97294 27.0613 2.01855 27.1982L2.29882 27.9931C2.36469 28.1636 2.4982 28.495 2.5957 28.7207L2.59863 28.7275C2.69043 28.9442 2.89198 29.3757 3.03906 29.6718C3.18789 29.9715 3.37331 30.3338 3.45507 30.4834L3.79394 31.0712C3.89278 31.236 4.06158 31.5069 4.16503 31.6689C4.2664 31.8255 4.44706 32.0938 4.56152 32.2587C4.68084 32.4277 4.86611 32.685 4.9746 32.8291C5.08417 32.9745 5.27885 33.2236 5.40527 33.3818L5.87304 33.9375L6.45019 34.5712L6.45409 34.5742C6.63197 34.7652 6.9104 35.0467 7.06542 35.1962L7.57225 35.6679C7.70419 35.7848 7.87895 35.9405 7.98046 36.0273C8.08765 36.1189 8.26798 36.2702 8.37792 36.3593C8.48137 36.4432 8.75355 36.653 8.98241 36.8251C9.19787 36.9872 9.57661 37.2558 9.81444 37.415C10.0568 37.5772 10.4316 37.8171 10.6387 37.9413C10.8548 38.071 11.1741 38.2537 11.3389 38.3447L12.043 38.7119L12.0459 38.7138C12.2648 38.8233 12.6025 38.9821 12.7861 39.0644C12.9695 39.1465 13.2533 39.2668 13.4111 39.332C13.5529 39.3905 13.8766 39.5138 14.1299 39.6064C14.2559 39.6514 14.41 39.7043 14.5537 39.7529L14.9209 39.873L14.9297 39.8749L15.4951 40.0449L15.5019 40.0468L15.5097 40.0488L16.1719 40.2187L16.1787 40.2206C16.3059 40.2525 16.4613 40.2886 16.6074 40.3212L16.9804 40.4003L16.9902 40.4023L17.622 40.5165L17.6318 40.5185L18.1279 40.5947L18.1357 40.5956L18.1435 40.5976C18.2453 40.6129 18.4947 40.6428 18.6943 40.665C18.8925 40.6849 19.2293 40.7168 19.4433 40.7343C19.6957 40.7532 20.0746 40.7617 20.8808 40.7617V41.7617L19.9297 41.7548C19.8086 41.7524 19.7036 41.749 19.6103 41.7451L19.3613 41.7314L18.5869 41.6601C18.385 41.6377 18.1174 41.6042 17.9951 41.5859C17.8726 41.5695 17.6339 41.5333 17.4648 41.5048C17.2975 41.4783 16.9937 41.4235 16.792 41.3828C16.59 41.344 16.2046 41.2576 15.9355 41.1904C15.6667 41.1252 15.3452 41.0435 15.2226 41.0068C15.1003 40.9721 14.8327 40.8932 14.6308 40.83C14.5299 40.7994 14.3851 40.7514 14.2334 40.7001L13.7949 40.5478L13.0303 40.2568L12.3779 39.9775C12.1822 39.8898 11.8311 39.7246 11.5986 39.6083L10.8545 39.2206L10.124 38.7988C10.0119 38.7315 9.859 38.6352 9.70213 38.5351L9.2578 38.246C9.13133 38.1614 8.96938 38.0492 8.81053 37.9365L8.38085 37.624L7.74901 37.1367L7.33104 36.788C7.21889 36.6922 7.02672 36.5202 6.90233 36.4101C6.77788 36.2979 6.54103 36.0778 6.37597 35.9208C6.21074 35.7617 5.91528 35.4637 5.72167 35.2558L5.11816 34.5937L4.6289 34.0126C4.49839 33.8495 4.29405 33.5876 4.17578 33.4306L3.74023 32.8291C3.61992 32.6557 3.42936 32.3742 3.32128 32.207L2.93652 31.5849L2.58398 30.9736C2.5391 30.892 2.46654 30.7549 2.38672 30.5996L2.14355 30.1171C1.99064 29.8093 1.77971 29.3588 1.67773 29.1181L1.36621 28.3535C1.29688 28.174 1.16411 27.7959 1.07031 27.5166C0.976522 27.2351 0.848254 26.8274 0.787108 26.6093L0.583007 25.8349L0.427734 25.1513L0.295898 24.4375C0.257155 24.2131 0.202289 23.8603 0.175781 23.6523C0.161504 23.5483 0.143523 23.4035 0.126953 23.2539L0.0839842 22.8261L0.0205078 21.9902C0.0103142 21.776 0 21.2765 0 20.8789C2.77263e-07 20.6799 0.00300879 20.4565 0.00683593 20.2568L0.0205078 19.7773L0.0839842 18.9521C0.106412 18.7054 0.147234 18.334 0.175781 18.1259C0.202272 17.9181 0.252445 17.5837 0.287109 17.3818C0.319718 17.18 0.385722 16.8354 0.432617 16.6172C0.477478 16.399 0.554575 16.0534 0.603515 15.8515L0.826171 15.0361C0.861848 14.9128 0.909562 14.7536 0.958983 14.5967L1.09863 14.1699L1.3789 13.3945L1.66211 12.6914L2.01855 11.9062C2.13269 11.6657 2.30647 11.3211 2.40234 11.1416C2.49612 10.9622 2.64855 10.6863 2.73828 10.5293L3.0957 9.92772C3.20175 9.75436 3.40328 9.44232 3.54394 9.23436L4.04589 8.5205C4.1132 8.42768 4.20321 8.3077 4.29394 8.18944L4.54492 7.86815L5.02636 7.2871L5.49511 6.75683C5.62762 6.61207 5.90725 6.32233 6.11523 6.1123C6.21924 6.00828 6.34392 5.88586 6.46093 5.77343L6.75976 5.49218L7.29003 5.02343L7.87108 4.54199C8.04441 4.40331 8.33786 4.17658 8.52343 4.04199L9.23729 3.54101C9.34117 3.47073 9.47113 3.38494 9.59667 3.30371L9.93065 3.09179L10.5322 2.73535L11.1035 2.41894L11.8574 2.04199C11.9859 1.97975 12.1506 1.90328 12.3115 1.83008L12.7451 1.63769C12.8602 1.5888 13.0128 1.52664 13.166 1.46582L13.5908 1.30176C13.7081 1.25789 13.8578 1.20432 14.0039 1.15332L14.3965 1.01953L15.0693 0.811522C15.2325 0.764617 15.5585 0.677282 15.7929 0.618163C15.9101 0.587595 16.0687 0.550098 16.2295 0.513671L16.6806 0.416015C16.9334 0.365047 17.2762 0.29993 17.4453 0.273437C17.6126 0.244883 17.9201 0.198364 18.1279 0.171875C18.3358 0.143332 18.711 0.102599 18.9638 0.0781249C19.2167 0.0556923 19.5556 0.0287513 19.7187 0.0185547C19.8821 0.0103993 20.3817 0 20.83 0L21.5615 0.00488281C21.7828 0.00921896 21.9778 0.0161821 22.1347 0.0263671C22.4037 0.0426702 22.7706 0.0714883 22.9502 0.0898436C23.1296 0.106158 23.4463 0.143324 23.6543 0.171875C23.8623 0.20043 24.1966 0.249525 24.3984 0.284179C24.6003 0.318851 24.9227 0.377278 25.1123 0.416015C25.3019 0.454766 25.628 0.528135 25.8359 0.579101C26.0439 0.628037 26.419 0.728344 26.6718 0.801757C26.9246 0.873098 27.3323 1.00134 27.5791 1.08496C27.8258 1.16857 28.175 1.29297 28.3545 1.3623C28.5339 1.43165 28.8785 1.57081 29.1191 1.6748C29.3597 1.77677 29.8 1.98009 30.0976 2.1289C30.3953 2.27573 30.7445 2.45401 30.873 2.52539C31.0015 2.59478 31.2497 2.73509 31.4228 2.83691C31.596 2.93881 31.8756 3.1078 32.0449 3.21386C32.2119 3.3198 32.4646 3.48516 32.6054 3.58105C32.7384 3.67167 32.9829 3.84674 33.166 3.97753L33.1972 3.99902C33.3828 4.13361 33.6845 4.36488 33.8701 4.51171C34.0556 4.66059 34.3352 4.89083 34.4921 5.02538C34.6492 5.15999 34.8961 5.38008 35.0429 5.51464C35.1897 5.64721 35.473 5.92221 35.6748 6.12401C35.8766 6.32591 36.1663 6.63062 36.3212 6.79784C36.4742 6.96711 36.7147 7.24 36.8574 7.40917C37.0001 7.57636 37.2368 7.86981 37.3857 8.06151C37.5325 8.25321 37.7406 8.52902 37.8466 8.67381C37.9527 8.81867 38.1542 9.1142 38.2968 9.32616C38.4375 9.53816 38.6642 9.89674 38.7988 10.1211C38.9333 10.3453 39.1247 10.6759 39.2226 10.8555C39.3205 11.0349 39.5148 11.4063 39.6494 11.6816C39.786 11.9569 39.981 12.3795 40.0829 12.6201C40.1869 12.8607 40.3364 13.2276 40.4179 13.4355C40.4974 13.6436 40.6303 14.015 40.7119 14.2617C40.7934 14.5083 40.9077 14.8707 40.9648 15.0664C41.0198 15.2621 41.1175 15.6253 41.1786 15.872C41.2398 16.1188 41.3251 16.5088 41.372 16.7392C41.4168 16.9693 41.4679 17.2339 41.4843 17.3301C41.5006 17.4259 41.5368 17.6589 41.5654 17.8506C41.5939 18.0423 41.6356 18.3708 41.6601 18.5849C41.6825 18.7991 41.7151 19.152 41.7314 19.3701C41.7538 19.6556 41.7617 20.0818 41.7617 20.8789L41.7548 21.8261C41.75 22.071 41.7426 22.2537 41.7314 22.3984C41.7151 22.6226 41.6862 22.9384 41.6699 23.1015L41.5966 23.7031L41.4941 24.3759C41.4594 24.5778 41.3965 24.9234 41.3495 25.1416C41.3047 25.3598 41.2228 25.7184 41.1699 25.9365L40.9599 26.7216L40.7255 27.4765L40.4765 28.1796C40.4072 28.3652 40.2893 28.6669 40.2119 28.8525C40.1364 29.038 40.0036 29.3416 39.9179 29.5293C39.8323 29.7188 39.682 30.0373 39.58 30.2392L39.2187 30.9267C39.1229 31.1041 38.9417 31.4179 38.8173 31.6259C38.695 31.8339 38.4461 32.2239 38.2646 32.4931C38.0851 32.7623 37.8279 33.1291 37.6933 33.3085C37.5588 33.4879 37.3247 33.7917 37.1718 33.9814L36.8886 34.3251C36.785 34.4489 36.6801 34.5723 36.5986 34.665L36.2978 34.998C36.1875 35.118 36.0759 35.2373 35.9892 35.3271C35.8159 35.5086 35.5234 35.801 35.3378 35.9785C35.1523 36.1579 34.8587 36.4272 34.6855 36.58L34.1552 37.0322C34.0369 37.1301 33.8085 37.312 33.6455 37.4384L33.3378 37.6708C33.2234 37.756 33.1064 37.8419 33.0136 37.9072C32.8281 38.0397 32.516 38.2522 32.3203 38.3828L31.9609 38.6122C31.8297 38.6943 31.6975 38.7748 31.5966 38.8349L30.9238 39.2226L30.2197 39.5878C30.0016 39.6979 29.6801 39.8511 29.5068 39.9306L28.8535 40.2119C28.6679 40.2893 28.3661 40.4072 28.1806 40.4765C27.9951 40.5458 27.6793 40.6582 27.4775 40.7255L26.7334 40.956L25.9482 41.1679L25.1425 41.3515C24.9244 41.3964 24.5798 41.4594 24.3779 41.4941C24.176 41.5267 23.8743 41.5742 23.705 41.5966C23.5378 41.6191 23.2666 41.6515 23.1035 41.6699L22.4004 41.7314C22.1108 41.7538 21.67 41.7617 20.8808 41.7617V40.7617C21.675 40.7617 22.0773 40.7533 22.3222 40.7343L22.3271 40.7333C22.5347 40.7182 22.8313 40.6916 22.9912 40.6757C23.1498 40.6579 23.4142 40.6266 23.5722 40.6054L24.2187 40.5068C24.4152 40.4729 24.7408 40.4133 24.9414 40.372C25.1404 40.3311 25.4823 40.2522 25.6992 40.1992C25.9131 40.1447 26.2593 40.0511 26.4599 39.9941C26.652 39.9395 26.9718 39.8404 27.1611 39.7773C27.3509 39.714 27.6559 39.6054 27.831 39.54C28.0072 39.4742 28.297 39.3607 28.4687 39.289L28.4775 39.2851C28.651 39.2145 28.9313 39.0941 29.0898 39.0214C29.2553 38.9455 29.5654 38.7982 29.7695 38.6953L29.7763 38.6913C29.9823 38.5893 30.2824 38.432 30.4365 38.3476C30.5963 38.259 30.8917 38.0917 31.0849 37.9765C31.2747 37.8634 31.5881 37.6671 31.7714 37.5468C31.9641 37.4183 32.2616 37.2158 32.4326 37.0937L32.4384 37.0888C32.6079 36.9696 32.8784 36.7673 33.0332 36.6474C33.1916 36.5246 33.4105 36.3502 33.5175 36.2617L33.5263 36.2558C33.6293 36.1724 33.8561 35.9785 34.0244 35.83C34.1883 35.6854 34.4707 35.4269 34.6435 35.2597L34.6474 35.2548C34.8223 35.0876 35.1031 34.8068 35.2656 34.6367L35.2695 34.6328C35.4308 34.4657 35.6937 34.1799 35.8476 34.0048C35.9991 33.8325 36.247 33.5351 36.3935 33.3535C36.5374 33.175 36.7643 32.8812 36.8935 32.7089C37.0133 32.5492 37.2593 32.1983 37.4326 31.9384L37.4355 31.9335C37.6099 31.6749 37.8464 31.3037 37.955 31.1191L37.9589 31.1132C38.0797 30.9113 38.2527 30.6105 38.3388 30.4511L38.3456 30.4394C38.4334 30.2822 38.5875 29.9869 38.6874 29.789C38.782 29.6018 38.9262 29.2965 39.0068 29.1181L39.0087 29.1142C39.0901 28.936 39.2162 28.646 39.2851 28.4765L39.289 28.4677C39.3607 28.2961 39.4742 28.0062 39.54 27.83C39.6054 27.6549 39.714 27.35 39.7773 27.1601C39.8394 26.9738 39.9393 26.6473 40.0009 26.4384C40.0579 26.2382 40.1455 25.9084 40.1982 25.7002C40.249 25.491 40.3281 25.1437 40.3701 24.9394L40.372 24.9306L40.5087 24.207C40.5409 24.0075 40.5852 23.7212 40.6054 23.5703C40.6268 23.4084 40.658 23.1473 40.6757 22.9902C40.6915 22.8306 40.7182 22.5341 40.7333 22.3261L40.7343 22.3213C40.7533 22.0764 40.7617 21.6737 40.7617 20.8789Z" fill="#1D1D1D"/>
<path d="M23.1854 25.2606C24.289 25.0069 25.3433 24.5659 26.3015 23.9568C27.0234 23.4686 27.2173 22.4815 26.7343 21.7517C26.2704 21.05 25.3459 20.8382 24.6266 21.2678C22.4194 22.6635 19.6149 22.6635 17.4076 21.2678C16.6745 20.8006 15.7068 21.0228 15.2437 21.7622C15.2437 21.764 15.2437 21.7657 15.2419 21.7666C14.7797 22.5078 14.9996 23.4869 15.7327 23.9542L15.7345 23.956C16.6909 24.5641 17.7443 25.006 18.8471 25.258L15.8479 28.29C15.2359 28.8982 15.2246 29.8913 15.8236 30.51L15.8496 30.5362C16.1473 30.846 16.5507 31 16.9523 31C17.3548 31 17.7573 30.846 18.056 30.5362L21.0171 27.5576L23.9636 30.538C24.5868 31.1461 25.5822 31.1295 26.1847 30.4986C26.7715 29.8835 26.7715 28.9078 26.1847 28.2935L23.1854 25.2606ZM21.0171 20.84C23.9774 20.8365 26.3751 18.4126 26.3794 15.4209C26.3794 12.4326 23.9731 10 21.0171 10C18.0612 10 15.6548 12.4326 15.6548 15.4226C15.6592 18.4152 18.0577 20.8391 21.0171 20.8408V20.84ZM21.0171 13.1773C22.2428 13.179 23.2356 14.1835 23.2365 15.4217C23.2365 16.6608 22.2428 17.6644 21.0171 17.6662C19.7923 17.6644 18.7995 16.6617 18.7969 15.4226C18.7986 14.1827 19.7923 13.179 21.0171 13.1764V13.1773Z" fill="#1D1D1D"/>
</svg>
