<svg width="42" height="42" viewBox="0 0 42 42" fill="none" xmlns="http://www.w3.org/2000/svg">
<path d="M29.4656 12.5687C29.3372 12.5646 29.2046 12.5667 29.1699 12.5707C29.1353 12.5769 29.0129 12.5993 28.8947 12.6217C28.7764 12.6462 28.548 12.7053 28.3849 12.7543C28.2217 12.8012 27.9505 12.8889 27.7833 12.946C27.6141 13.0031 27.247 13.1377 26.9677 13.2417C26.6863 13.3477 26.0908 13.5802 25.6422 13.7576C25.1936 13.9371 24.5411 14.2002 24.1944 14.3429C23.8478 14.4857 22.9648 14.8507 22.2369 15.1525C21.5068 15.4564 20.0305 16.0845 18.9538 16.5454C17.8772 17.0083 16.4131 17.6385 15.7014 17.9484C14.9897 18.2564 13.2911 18.9926 11.929 19.584C10.5668 20.1733 9.34539 20.7036 9.21693 20.7607C9.08846 20.8157 8.90494 20.9034 8.8091 20.9544C8.71326 21.0054 8.54809 21.1033 8.44205 21.1747C8.33602 21.244 8.18921 21.3643 8.11376 21.4418C8.01792 21.5438 7.96695 21.6172 7.93432 21.7049C7.89761 21.7987 7.88945 21.8558 7.89557 21.9496C7.90168 22.0332 7.92412 22.1066 7.96491 22.1821C7.99753 22.2412 8.06482 22.3289 8.11579 22.3758C8.16677 22.4227 8.27077 22.5002 8.35029 22.5451C8.42982 22.592 8.57664 22.6634 8.67655 22.7042C8.77647 22.747 8.95184 22.8122 9.06399 22.851C9.17614 22.8897 9.59009 23.0223 9.98161 23.1447C10.3752 23.2691 10.8646 23.4179 11.0725 23.4791C11.2805 23.5382 11.5925 23.6239 11.7659 23.6688C11.9392 23.7136 12.1451 23.7646 12.2247 23.783C12.3042 23.8034 12.3857 23.8217 12.4082 23.8278C12.4306 23.8319 12.5815 23.8605 12.7446 23.889C12.9302 23.9216 13.1586 23.9461 13.3564 23.9522C13.6052 23.9624 13.7173 23.9563 13.8866 23.9278C14.0048 23.9094 14.2026 23.8605 14.325 23.8217C14.4473 23.7809 14.641 23.7075 14.7532 23.6565C14.8654 23.6035 15.053 23.5077 15.1712 23.4404C15.2895 23.3751 15.7748 23.059 16.252 22.7388C16.7291 22.4186 17.3898 21.9741 17.7202 21.7498L17.8535 21.66C18.1946 21.4305 18.6969 21.0926 19.0456 20.8565C19.4432 20.5873 20.5321 19.8593 21.462 19.2393C22.3939 18.6194 23.2259 18.0667 23.3135 18.0117C23.3992 17.9566 23.5888 17.8363 23.7316 17.7445C23.8743 17.6527 24.0925 17.5181 24.2148 17.4447C24.3372 17.3713 24.4799 17.304 24.5309 17.2918C24.5819 17.2795 24.6553 17.2694 24.694 17.2694C24.7328 17.2694 24.8021 17.2877 24.847 17.3061C24.9041 17.3326 24.9408 17.3672 24.9673 17.4243C24.9897 17.4672 25.0101 17.5487 25.0162 17.6058C25.0244 17.7017 25.0183 17.716 24.9326 17.8302C24.8837 17.8975 24.7756 18.0259 24.694 18.1157C24.6125 18.2054 24.3657 18.4603 24.1455 18.6846C23.9253 18.9069 23.444 19.3801 23.0729 19.7349C22.7018 20.0918 22.2307 20.5404 22.0227 20.7362C21.8148 20.9299 21.5803 21.1502 21.5028 21.2257C21.4253 21.2991 21.2825 21.4337 21.1867 21.5234C21.0909 21.6111 20.8849 21.8028 20.7279 21.9496C20.5709 22.0964 20.3731 22.28 20.2895 22.3575C20.2038 22.435 20.006 22.6185 19.8511 22.7653C19.694 22.9101 19.4188 23.1712 19.2393 23.3465C19.0599 23.5199 18.754 23.8176 18.5603 24.0093C18.3645 24.199 18.1545 24.4213 18.0893 24.4988C18.026 24.5763 17.9383 24.7007 17.8935 24.7741C17.8507 24.8475 17.7977 24.9556 17.7773 25.0127C17.7569 25.0718 17.7344 25.1697 17.7283 25.2268C17.7202 25.288 17.7263 25.39 17.7405 25.4573C17.7548 25.5246 17.7936 25.6347 17.8282 25.702C17.8609 25.7693 17.9281 25.8753 17.975 25.9365C18.0219 25.9977 18.1198 26.1037 18.1912 26.171C18.2626 26.2383 18.3951 26.3505 18.4848 26.4178C18.5746 26.4851 18.9416 26.738 19.3005 26.9766C19.6594 27.2152 19.9551 27.4191 19.9592 27.4293C19.9612 27.4374 19.9734 27.4456 19.9836 27.4456C19.9938 27.4456 20.369 27.6944 20.8156 28.0003C21.2601 28.3041 22.1064 28.8752 22.6957 29.2667C23.285 29.6603 23.9314 30.0967 24.1333 30.2395C24.3351 30.3822 24.639 30.5902 24.8062 30.7004C24.9754 30.8105 25.214 30.9512 25.3364 31.0144C25.4587 31.0776 25.6402 31.1592 25.7401 31.1939C25.838 31.2306 26.0093 31.2775 26.1214 31.2999C26.2581 31.3264 26.4049 31.3407 26.566 31.3407C26.7169 31.3407 26.8494 31.3285 26.9269 31.3081C26.9942 31.2897 27.09 31.253 27.141 31.2285C27.192 31.202 27.2797 31.1409 27.3388 31.0919C27.3959 31.043 27.4958 30.939 27.559 30.8615C27.6222 30.784 27.7262 30.6086 27.7935 30.474C27.8608 30.3394 27.9465 30.1334 27.9852 30.0152C28.024 29.8969 28.079 29.7093 28.1076 29.5971C28.1361 29.4849 28.2095 29.1219 28.2707 28.7916C28.3319 28.4612 28.4155 28.0064 28.4562 27.7821C28.495 27.5578 28.5419 27.2967 28.5582 27.2009C28.5745 27.105 28.6112 26.9031 28.6398 26.7522C28.6663 26.6013 28.7397 26.1873 28.8009 25.8345C28.8612 25.4867 28.9552 24.9328 29.0125 24.5948L29.0131 24.5914L29.015 24.5803C29.0721 24.2439 29.1373 23.8666 29.1598 23.7442C29.1822 23.6219 29.2454 23.2344 29.3025 22.8877C29.3596 22.541 29.4371 22.0618 29.4758 21.8272C29.5146 21.5927 29.5819 21.1645 29.6288 20.879C29.6736 20.5935 29.7205 20.3039 29.7307 20.2366C29.7389 20.1693 29.7858 19.8756 29.8306 19.584C29.8755 19.2924 29.9224 18.9946 29.9326 18.9212C29.9428 18.8478 29.9856 18.5684 30.0264 18.2992C30.0672 18.03 30.1039 17.7874 30.108 17.7588C30.112 17.7302 30.1528 17.4427 30.1977 17.1164C30.2425 16.7901 30.3017 16.3455 30.3302 16.1273C30.3588 15.9091 30.3934 15.6562 30.4036 15.5665C30.4159 15.4768 30.4424 15.2463 30.4648 15.0567C30.4872 14.865 30.5158 14.6223 30.5301 14.5163C30.5443 14.4102 30.5566 14.139 30.5566 13.9147C30.5566 13.6047 30.5464 13.468 30.5199 13.3436C30.5015 13.2539 30.4587 13.1254 30.4261 13.0581C30.3914 12.9868 30.3241 12.895 30.2629 12.8379C30.2058 12.7849 30.11 12.7196 30.0529 12.6911C29.9938 12.6646 29.8898 12.6279 29.8225 12.6095C29.7531 12.5891 29.5961 12.5728 29.4656 12.5687Z" fill="#1D1D1D"/>
<mask id="path-2-inside-1_42_1617" fill="white">
<path d="M22.1349 0.0268283C21.8209 0.00643504 21.3539 -0.00173581 20.8298 0.000303518C20.3812 0.000303518 19.8816 0.0105065 19.7185 0.0186638C19.5554 0.0288604 19.2169 0.0553743 18.964 0.0778069C18.7112 0.102279 18.336 0.143069 18.128 0.171619C17.92 0.198131 17.6121 0.245026 17.4449 0.273577C17.2756 0.300088 16.933 0.365353 16.6802 0.416337C16.4273 0.46732 16.0277 0.55704 15.7932 0.61822C15.5587 0.67736 15.2324 0.765054 15.0693 0.811958C14.9061 0.858863 14.6043 0.952677 14.3964 1.01997C14.1884 1.08727 13.8254 1.2137 13.5909 1.30139C13.3564 1.38908 12.9751 1.54 12.7446 1.63789C12.5142 1.73578 12.1146 1.91728 11.8576 2.04168C11.6007 2.16608 11.2601 2.33535 11.1031 2.41896C10.9461 2.50257 10.6892 2.64532 10.5322 2.73505C10.3752 2.82478 10.104 2.98589 9.93063 3.09193C9.7573 3.19798 9.44531 3.39987 9.23732 3.54059C9.02933 3.6813 8.70918 3.90765 8.52362 4.04225C8.33806 4.17684 8.04442 4.40322 7.87109 4.5419C7.69777 4.68057 7.43472 4.89877 7.28994 5.02317C7.14516 5.14756 6.90454 5.35965 6.75976 5.49221C6.61498 5.62477 6.32339 5.90417 6.1154 6.11218C5.90741 6.32223 5.62804 6.6118 5.49549 6.7566C5.36295 6.90139 5.15088 7.14204 5.02649 7.28684C4.9021 7.43163 4.68392 7.69469 4.54526 7.86803C4.4066 8.04137 4.18025 8.33504 4.04567 8.52062C3.91109 8.70619 3.68473 9.02636 3.54403 9.23438C3.40333 9.44239 3.20145 9.7544 3.09542 9.92774C2.98938 10.1011 2.82829 10.3723 2.73857 10.5294C2.64884 10.6864 2.49591 10.9617 2.40211 11.1412C2.30627 11.3206 2.13294 11.6653 2.01875 11.9059C1.90456 12.1465 1.74347 12.4993 1.6619 12.691C1.58034 12.8827 1.4539 13.1988 1.37845 13.3946C1.303 13.5904 1.17659 13.9391 1.09911 14.1696C1.01958 14.4 0.897223 14.7895 0.825853 15.0363C0.754484 15.283 0.654557 15.6501 0.603579 15.852C0.554639 16.0539 0.477164 16.3985 0.432302 16.6168C0.385403 16.835 0.320138 17.1796 0.287511 17.3815C0.252846 17.5834 0.201867 17.9178 0.175358 18.1259C0.146811 18.3339 0.106027 18.705 0.0835969 18.9518C0.0611665 19.1985 0.0326264 19.5697 0.0203914 19.7777C0.0101957 19.9857 0 20.4813 0 20.8789C0 21.2766 0.0101958 21.7762 0.0203914 21.9904C0.0326262 22.2045 0.0611664 22.5797 0.0835969 22.8265C0.106027 23.0733 0.14681 23.4444 0.175358 23.6524C0.201867 23.8604 0.256932 24.2132 0.295676 24.4376C0.33442 24.6619 0.393555 24.9821 0.42822 25.1513C0.462886 25.3186 0.532209 25.6265 0.583187 25.8345C0.634165 26.0425 0.723888 26.3912 0.787101 26.6094C0.848275 26.8277 0.97675 27.2355 1.07055 27.5169C1.16435 27.7963 1.29689 28.1736 1.36623 28.3531C1.43556 28.5325 1.57421 28.8772 1.67821 29.1178C1.78017 29.3585 1.9902 29.8092 2.14313 30.1171C2.29607 30.425 2.49388 30.8105 2.5836 30.9736C2.67536 31.1368 2.83237 31.4121 2.93637 31.5854C3.04036 31.7588 3.2137 32.0382 3.32177 32.2074C3.42985 32.3746 3.61949 32.656 3.7398 32.8294C3.86214 33.0027 4.05789 33.274 4.17616 33.431C4.29443 33.588 4.49835 33.8491 4.62886 34.0122C4.7614 34.1754 4.98163 34.4364 5.11825 34.5934C5.25487 34.7504 5.52607 35.0482 5.72183 35.2562C5.91555 35.4642 6.21124 35.762 6.37641 35.921C6.54158 36.078 6.77811 36.2983 6.9025 36.4105C7.02689 36.5206 7.21857 36.6919 7.33072 36.7877C7.44287 36.8836 7.63048 37.0406 7.74874 37.1365C7.86702 37.2323 8.15046 37.4505 8.38088 37.6239C8.6113 37.7972 9.00486 38.0766 9.25771 38.2458C9.51056 38.4151 9.90004 38.6639 10.1243 38.7985C10.3487 38.9331 10.677 39.1228 10.8544 39.2206C11.0297 39.3165 11.3641 39.4919 11.5986 39.6081C11.8311 39.7244 12.1818 39.8896 12.3776 39.9772C12.5734 40.0649 12.867 40.1893 13.0301 40.2566C13.1933 40.3239 13.5379 40.4544 13.7948 40.5482C14.0517 40.64 14.429 40.7685 14.6309 40.8297C14.8327 40.8929 15.0999 40.9724 15.2222 41.0071C15.3446 41.0438 15.6667 41.1254 15.9359 41.1906C16.2051 41.2579 16.5905 41.3436 16.7923 41.3823C16.9942 41.4231 17.2981 41.4782 17.4653 41.5047C17.6345 41.5332 17.8731 41.57 17.9954 41.5863C18.1178 41.6046 18.3849 41.6372 18.5868 41.6597C18.7887 41.6801 19.1374 41.7127 19.3617 41.7311C19.6573 41.7535 20.0733 41.7617 20.8808 41.7617C21.67 41.7617 22.1104 41.7535 22.4 41.7311C22.6243 41.7148 22.9404 41.6862 23.1035 41.6699C23.2666 41.6515 23.5378 41.6189 23.705 41.5965C23.8743 41.574 24.1761 41.5271 24.378 41.4945C24.5798 41.4598 24.9245 41.3966 25.1426 41.3518C25.3608 41.3069 25.7238 41.2233 25.9481 41.1682C26.1724 41.1111 26.5252 41.0153 26.7332 40.9561C26.9412 40.897 27.2756 40.793 27.4775 40.7257C27.6793 40.6584 27.9954 40.5462 28.181 40.4769C28.3665 40.4075 28.6683 40.2893 28.8539 40.2118C29.0394 40.1363 29.3331 40.0099 29.5064 39.9303C29.6797 39.8508 30.0019 39.6979 30.2201 39.5877C30.4383 39.4797 30.7564 39.3145 30.9236 39.2227C31.0929 39.1289 31.3947 38.9555 31.5965 38.8352C31.7984 38.7149 32.1247 38.511 32.3204 38.3825C32.5162 38.252 32.8282 38.0399 33.0137 37.9073C33.1993 37.7768 33.4827 37.5647 33.6459 37.4383C33.809 37.3118 34.0374 37.1303 34.1557 37.0325C34.2739 36.9366 34.5125 36.7327 34.6858 36.5797C34.8592 36.4268 35.1528 36.1576 35.3384 35.9781C35.5239 35.8007 35.8155 35.5091 35.9888 35.3276C36.1622 35.1481 36.4354 34.8504 36.5985 34.6648C36.7617 34.4792 37.0186 34.1713 37.1716 33.9816C37.3245 33.792 37.559 33.4881 37.6936 33.3087C37.8281 33.1292 38.0851 32.7621 38.2645 32.4929C38.446 32.2237 38.6948 31.8342 38.8171 31.6262C38.9415 31.4182 39.123 31.1041 39.2188 30.9267C39.3167 30.7513 39.4778 30.4414 39.5798 30.2395C39.6817 30.0376 39.8326 29.7194 39.9183 29.5298C40.0039 29.3421 40.1365 29.0383 40.2119 28.8527C40.2894 28.6671 40.4077 28.3653 40.477 28.1797C40.5463 27.9942 40.6585 27.6781 40.7258 27.4762C40.7931 27.2743 40.8971 26.9357 40.9603 26.7216C41.0215 26.5075 41.1152 26.1547 41.1703 25.9365C41.2233 25.7183 41.3049 25.3594 41.3497 25.1411C41.3966 24.9229 41.4599 24.5783 41.4945 24.3764C41.5272 24.1745 41.5741 23.8706 41.5965 23.7034C41.6189 23.5341 41.6515 23.2649 41.6699 23.1018C41.6862 22.9387 41.7148 22.6226 41.7311 22.3982C41.7535 22.1087 41.7617 21.6682 41.7617 20.8789C41.7617 20.0816 41.7535 19.6553 41.7311 19.3698C41.7148 19.1516 41.6821 18.7988 41.6597 18.5847C41.6352 18.3706 41.5945 18.0422 41.5659 17.8505C41.5374 17.6588 41.5007 17.4264 41.4843 17.3305C41.468 17.2347 41.417 16.9695 41.3722 16.7391C41.3253 16.5087 41.2396 16.1191 41.1785 15.8724C41.1173 15.6256 41.0194 15.2626 40.9644 15.0669C40.9073 14.8711 40.7931 14.5081 40.7115 14.2613C40.6299 14.0146 40.4974 13.6434 40.4179 13.4354C40.3363 13.2274 40.1874 12.8603 40.0834 12.6197C39.9815 12.379 39.7857 11.9569 39.6491 11.6816C39.5145 11.4063 39.3208 11.0351 39.2229 10.8557C39.125 10.6762 38.9334 10.3458 38.7988 10.1215C38.6642 9.89716 38.4378 9.53825 38.2971 9.32616C38.1544 9.11407 37.9525 8.81837 37.8465 8.67357C37.7405 8.52878 37.5325 8.25347 37.3857 8.06177C37.2368 7.87007 37.0003 7.57641 36.8575 7.40918C36.7148 7.23992 36.4742 6.96664 36.3212 6.79738C36.1663 6.63016 35.8767 6.3263 35.6748 6.1244C35.4729 5.92251 35.1895 5.64721 35.0427 5.51465C34.8959 5.38006 34.6491 5.15981 34.4921 5.02522C34.3351 4.89062 34.0557 4.66018 33.8702 4.51131C33.6846 4.36448 33.3828 4.13403 33.1973 3.99943L33.1663 3.97731C32.9832 3.84651 32.7389 3.672 32.6059 3.58137C32.4652 3.48552 32.2123 3.32033 32.0451 3.21428C31.8759 3.10824 31.5965 2.93899 31.4232 2.83702C31.2499 2.73506 31.0011 2.59434 30.8726 2.525C30.7442 2.45362 30.3955 2.27621 30.0978 2.12938C29.8 1.98051 29.3596 1.77656 29.119 1.67459C28.8783 1.57059 28.5337 1.43192 28.3543 1.36259C28.1748 1.29325 27.8261 1.16884 27.5794 1.08523C27.3327 1.00162 26.9249 0.873139 26.672 0.801762C26.4191 0.728347 26.0439 0.628412 25.8359 0.579468C25.628 0.528485 25.3017 0.455084 25.1121 0.416337C24.9224 0.377589 24.6002 0.318441 24.3984 0.283772C24.1965 0.249104 23.8621 0.20017 23.6541 0.171619C23.4461 0.143069 23.13 0.106348 22.9506 0.0900338C22.7711 0.0716798 22.4041 0.0431429 22.1349 0.0268283Z"/>
</mask>
<path d="M22.1349 0.0268283C21.8209 0.00643504 21.3539 -0.00173581 20.8298 0.000303518C20.3812 0.000303518 19.8816 0.0105065 19.7185 0.0186638C19.5554 0.0288604 19.2169 0.0553743 18.964 0.0778069C18.7112 0.102279 18.336 0.143069 18.128 0.171619C17.92 0.198131 17.6121 0.245026 17.4449 0.273577C17.2756 0.300088 16.933 0.365353 16.6802 0.416337C16.4273 0.46732 16.0277 0.55704 15.7932 0.61822C15.5587 0.67736 15.2324 0.765054 15.0693 0.811958C14.9061 0.858863 14.6043 0.952677 14.3964 1.01997C14.1884 1.08727 13.8254 1.2137 13.5909 1.30139C13.3564 1.38908 12.9751 1.54 12.7446 1.63789C12.5142 1.73578 12.1146 1.91728 11.8576 2.04168C11.6007 2.16608 11.2601 2.33535 11.1031 2.41896C10.9461 2.50257 10.6892 2.64532 10.5322 2.73505C10.3752 2.82478 10.104 2.98589 9.93063 3.09193C9.7573 3.19798 9.44531 3.39987 9.23732 3.54059C9.02933 3.6813 8.70918 3.90765 8.52362 4.04225C8.33806 4.17684 8.04442 4.40322 7.87109 4.5419C7.69777 4.68057 7.43472 4.89877 7.28994 5.02317C7.14516 5.14756 6.90454 5.35965 6.75976 5.49221C6.61498 5.62477 6.32339 5.90417 6.1154 6.11218C5.90741 6.32223 5.62804 6.6118 5.49549 6.7566C5.36295 6.90139 5.15088 7.14204 5.02649 7.28684C4.9021 7.43163 4.68392 7.69469 4.54526 7.86803C4.4066 8.04137 4.18025 8.33504 4.04567 8.52062C3.91109 8.70619 3.68473 9.02636 3.54403 9.23438C3.40333 9.44239 3.20145 9.7544 3.09542 9.92774C2.98938 10.1011 2.82829 10.3723 2.73857 10.5294C2.64884 10.6864 2.49591 10.9617 2.40211 11.1412C2.30627 11.3206 2.13294 11.6653 2.01875 11.9059C1.90456 12.1465 1.74347 12.4993 1.6619 12.691C1.58034 12.8827 1.4539 13.1988 1.37845 13.3946C1.303 13.5904 1.17659 13.9391 1.09911 14.1696C1.01958 14.4 0.897223 14.7895 0.825853 15.0363C0.754484 15.283 0.654557 15.6501 0.603579 15.852C0.554639 16.0539 0.477164 16.3985 0.432302 16.6168C0.385403 16.835 0.320138 17.1796 0.287511 17.3815C0.252846 17.5834 0.201867 17.9178 0.175358 18.1259C0.146811 18.3339 0.106027 18.705 0.0835969 18.9518C0.0611665 19.1985 0.0326264 19.5697 0.0203914 19.7777C0.0101957 19.9857 0 20.4813 0 20.8789C0 21.2766 0.0101958 21.7762 0.0203914 21.9904C0.0326262 22.2045 0.0611664 22.5797 0.0835969 22.8265C0.106027 23.0733 0.14681 23.4444 0.175358 23.6524C0.201867 23.8604 0.256932 24.2132 0.295676 24.4376C0.33442 24.6619 0.393555 24.9821 0.42822 25.1513C0.462886 25.3186 0.532209 25.6265 0.583187 25.8345C0.634165 26.0425 0.723888 26.3912 0.787101 26.6094C0.848275 26.8277 0.97675 27.2355 1.07055 27.5169C1.16435 27.7963 1.29689 28.1736 1.36623 28.3531C1.43556 28.5325 1.57421 28.8772 1.67821 29.1178C1.78017 29.3585 1.9902 29.8092 2.14313 30.1171C2.29607 30.425 2.49388 30.8105 2.5836 30.9736C2.67536 31.1368 2.83237 31.4121 2.93637 31.5854C3.04036 31.7588 3.2137 32.0382 3.32177 32.2074C3.42985 32.3746 3.61949 32.656 3.7398 32.8294C3.86214 33.0027 4.05789 33.274 4.17616 33.431C4.29443 33.588 4.49835 33.8491 4.62886 34.0122C4.7614 34.1754 4.98163 34.4364 5.11825 34.5934C5.25487 34.7504 5.52607 35.0482 5.72183 35.2562C5.91555 35.4642 6.21124 35.762 6.37641 35.921C6.54158 36.078 6.77811 36.2983 6.9025 36.4105C7.02689 36.5206 7.21857 36.6919 7.33072 36.7877C7.44287 36.8836 7.63048 37.0406 7.74874 37.1365C7.86702 37.2323 8.15046 37.4505 8.38088 37.6239C8.6113 37.7972 9.00486 38.0766 9.25771 38.2458C9.51056 38.4151 9.90004 38.6639 10.1243 38.7985C10.3487 38.9331 10.677 39.1228 10.8544 39.2206C11.0297 39.3165 11.3641 39.4919 11.5986 39.6081C11.8311 39.7244 12.1818 39.8896 12.3776 39.9772C12.5734 40.0649 12.867 40.1893 13.0301 40.2566C13.1933 40.3239 13.5379 40.4544 13.7948 40.5482C14.0517 40.64 14.429 40.7685 14.6309 40.8297C14.8327 40.8929 15.0999 40.9724 15.2222 41.0071C15.3446 41.0438 15.6667 41.1254 15.9359 41.1906C16.2051 41.2579 16.5905 41.3436 16.7923 41.3823C16.9942 41.4231 17.2981 41.4782 17.4653 41.5047C17.6345 41.5332 17.8731 41.57 17.9954 41.5863C18.1178 41.6046 18.3849 41.6372 18.5868 41.6597C18.7887 41.6801 19.1374 41.7127 19.3617 41.7311C19.6573 41.7535 20.0733 41.7617 20.8808 41.7617C21.67 41.7617 22.1104 41.7535 22.4 41.7311C22.6243 41.7148 22.9404 41.6862 23.1035 41.6699C23.2666 41.6515 23.5378 41.6189 23.705 41.5965C23.8743 41.574 24.1761 41.5271 24.378 41.4945C24.5798 41.4598 24.9245 41.3966 25.1426 41.3518C25.3608 41.3069 25.7238 41.2233 25.9481 41.1682C26.1724 41.1111 26.5252 41.0153 26.7332 40.9561C26.9412 40.897 27.2756 40.793 27.4775 40.7257C27.6793 40.6584 27.9954 40.5462 28.181 40.4769C28.3665 40.4075 28.6683 40.2893 28.8539 40.2118C29.0394 40.1363 29.3331 40.0099 29.5064 39.9303C29.6797 39.8508 30.0019 39.6979 30.2201 39.5877C30.4383 39.4797 30.7564 39.3145 30.9236 39.2227C31.0929 39.1289 31.3947 38.9555 31.5965 38.8352C31.7984 38.7149 32.1247 38.511 32.3204 38.3825C32.5162 38.252 32.8282 38.0399 33.0137 37.9073C33.1993 37.7768 33.4827 37.5647 33.6459 37.4383C33.809 37.3118 34.0374 37.1303 34.1557 37.0325C34.2739 36.9366 34.5125 36.7327 34.6858 36.5797C34.8592 36.4268 35.1528 36.1576 35.3384 35.9781C35.5239 35.8007 35.8155 35.5091 35.9888 35.3276C36.1622 35.1481 36.4354 34.8504 36.5985 34.6648C36.7617 34.4792 37.0186 34.1713 37.1716 33.9816C37.3245 33.792 37.559 33.4881 37.6936 33.3087C37.8281 33.1292 38.0851 32.7621 38.2645 32.4929C38.446 32.2237 38.6948 31.8342 38.8171 31.6262C38.9415 31.4182 39.123 31.1041 39.2188 30.9267C39.3167 30.7513 39.4778 30.4414 39.5798 30.2395C39.6817 30.0376 39.8326 29.7194 39.9183 29.5298C40.0039 29.3421 40.1365 29.0383 40.2119 28.8527C40.2894 28.6671 40.4077 28.3653 40.477 28.1797C40.5463 27.9942 40.6585 27.6781 40.7258 27.4762C40.7931 27.2743 40.8971 26.9357 40.9603 26.7216C41.0215 26.5075 41.1152 26.1547 41.1703 25.9365C41.2233 25.7183 41.3049 25.3594 41.3497 25.1411C41.3966 24.9229 41.4599 24.5783 41.4945 24.3764C41.5272 24.1745 41.5741 23.8706 41.5965 23.7034C41.6189 23.5341 41.6515 23.2649 41.6699 23.1018C41.6862 22.9387 41.7148 22.6226 41.7311 22.3982C41.7535 22.1087 41.7617 21.6682 41.7617 20.8789C41.7617 20.0816 41.7535 19.6553 41.7311 19.3698C41.7148 19.1516 41.6821 18.7988 41.6597 18.5847C41.6352 18.3706 41.5945 18.0422 41.5659 17.8505C41.5374 17.6588 41.5007 17.4264 41.4843 17.3305C41.468 17.2347 41.417 16.9695 41.3722 16.7391C41.3253 16.5087 41.2396 16.1191 41.1785 15.8724C41.1173 15.6256 41.0194 15.2626 40.9644 15.0669C40.9073 14.8711 40.7931 14.5081 40.7115 14.2613C40.6299 14.0146 40.4974 13.6434 40.4179 13.4354C40.3363 13.2274 40.1874 12.8603 40.0834 12.6197C39.9815 12.379 39.7857 11.9569 39.6491 11.6816C39.5145 11.4063 39.3208 11.0351 39.2229 10.8557C39.125 10.6762 38.9334 10.3458 38.7988 10.1215C38.6642 9.89716 38.4378 9.53825 38.2971 9.32616C38.1544 9.11407 37.9525 8.81837 37.8465 8.67357C37.7405 8.52878 37.5325 8.25347 37.3857 8.06177C37.2368 7.87007 37.0003 7.57641 36.8575 7.40918C36.7148 7.23992 36.4742 6.96664 36.3212 6.79738C36.1663 6.63016 35.8767 6.3263 35.6748 6.1244C35.4729 5.92251 35.1895 5.64721 35.0427 5.51465C34.8959 5.38006 34.6491 5.15981 34.4921 5.02522C34.3351 4.89062 34.0557 4.66018 33.8702 4.51131C33.6846 4.36448 33.3828 4.13403 33.1973 3.99943L33.1663 3.97731C32.9832 3.84651 32.7389 3.672 32.6059 3.58137C32.4652 3.48552 32.2123 3.32033 32.0451 3.21428C31.8759 3.10824 31.5965 2.93899 31.4232 2.83702C31.2499 2.73506 31.0011 2.59434 30.8726 2.525C30.7442 2.45362 30.3955 2.27621 30.0978 2.12938C29.8 1.98051 29.3596 1.77656 29.119 1.67459C28.8783 1.57059 28.5337 1.43192 28.3543 1.36259C28.1748 1.29325 27.8261 1.16884 27.5794 1.08523C27.3327 1.00162 26.9249 0.873139 26.672 0.801762C26.4191 0.728347 26.0439 0.628412 25.8359 0.579468C25.628 0.528485 25.3017 0.455084 25.1121 0.416337C24.9224 0.377589 24.6002 0.318441 24.3984 0.283772C24.1965 0.249104 23.8621 0.20017 23.6541 0.171619C23.4461 0.143069 23.13 0.106348 22.9506 0.0900338C22.7711 0.0716798 22.4041 0.0431429 22.1349 0.0268283Z" stroke="#1D1D1D" stroke-width="2" mask="url(#path-2-inside-1_42_1617)"/>
</svg>
