<svg width="42" height="42" viewBox="0 0 42 42" fill="none" xmlns="http://www.w3.org/2000/svg">
<path d="M20.5908 0.5C21.3435 0.5 22.3964 0.540943 22.9062 0.598633L22.917 0.599609C23.4423 0.648273 24.3259 0.786486 24.8711 0.895508C25.4002 1.00133 26.4531 1.29806 27.1963 1.53906C27.9273 1.7864 29.069 2.25428 29.7168 2.56836C30.3651 2.88267 31.3483 3.44807 31.8857 3.80957L31.8906 3.81348C32.4345 4.16948 33.22 4.74619 33.6191 5.07715L33.625 5.08203C34.0211 5.40083 34.7059 6.03487 35.1318 6.4707L35.1357 6.47461C35.5722 6.91108 36.1888 7.58752 36.4902 7.95703L36.4951 7.96289C36.7256 8.2366 37.0955 8.73415 37.417 9.19629L37.7158 9.6377L37.7197 9.64258C38.0812 10.1799 38.6466 11.1632 38.9609 11.8115L38.9639 11.8174C39.205 12.2997 39.523 13.0631 39.7715 13.7246L39.9912 14.3379C40.2295 15.0735 40.5168 16.1457 40.6338 16.7109C40.7434 17.2901 40.8824 18.1649 40.9414 18.6465C40.9899 19.1277 41.0391 20.0851 41.0391 20.7646C41.0391 21.4442 40.9899 22.4016 40.9414 22.8828C40.8824 23.3644 40.7434 24.2392 40.6338 24.8184C40.5162 25.3867 40.2688 26.3383 40.0811 26.9424C39.8827 27.5475 39.5142 28.5223 39.2402 29.1191L39.2373 29.125C38.972 29.7244 38.4857 30.6572 38.1543 31.1934C37.8151 31.742 37.3066 32.5 37.0234 32.8809L37.0186 32.8867C36.7502 33.2604 36.1964 33.9239 35.7979 34.3623C35.4029 34.7968 34.7353 35.4642 34.3223 35.8379C33.8984 36.2111 33.2562 36.7544 32.8799 37.0342C32.5 37.3166 31.7234 37.8345 31.1465 38.1826C30.5762 38.5267 29.6417 39.0143 29.0723 39.2695C28.5041 39.5242 27.5474 39.8824 26.9414 40.0811C26.3344 40.2698 25.4046 40.5164 24.8711 40.623C24.3206 40.7331 23.4387 40.8813 22.917 40.9297L22.4443 40.9727C21.919 41.0113 21.2393 41.0391 20.7334 41.0391C20.0727 41.0391 19.1219 40.989 18.6416 40.9404C18.159 40.8812 17.2867 40.7431 16.709 40.6338H16.71C16.1445 40.5168 15.144 40.2492 14.4883 40.041C13.8414 39.8254 12.7435 39.3784 12.0605 39.0518C11.7044 38.8814 11.3623 38.7284 11.0967 38.6172C10.9645 38.5619 10.8474 38.5151 10.7549 38.4814C10.7093 38.4648 10.6645 38.4485 10.624 38.4365C10.6154 38.434 10.5891 38.4264 10.5537 38.4189L10.4268 38.4043C10.3764 38.4043 10.3313 38.4127 10.3291 38.4131C10.314 38.4156 10.2987 38.4191 10.2852 38.4219C10.257 38.4276 10.2215 38.4351 10.1816 38.4443C10.1012 38.4629 9.98972 38.4896 9.85254 38.5234C9.57752 38.5912 9.19074 38.6888 8.72168 38.8086C7.78311 39.0483 6.51042 39.3784 5.13184 39.7383C4.38676 39.9328 3.677 40.1174 3.03809 40.2832C2.08152 40.5314 1.65973 40.3967 1.5 40.2354C1.3405 40.0739 1.21056 39.6513 1.46875 38.6982C1.83482 37.3473 2.35193 35.452 3.06152 32.8584C3.3172 31.9239 3.211 30.9247 2.76367 30.0645H2.76465C2.52561 29.5939 2.21402 28.9209 1.98242 28.375L1.7832 27.8838C1.57326 27.3032 1.27728 26.3933 1.1416 25.8604C1.00177 25.3111 0.812277 24.4547 0.734375 23.9775L0.732422 23.9678C0.647751 23.5067 0.547663 22.39 0.517578 21.5078V21.5039C0.477932 20.5423 0.508381 19.4648 0.576172 18.793C0.645745 18.1669 0.784119 17.2063 0.891602 16.666C1.00874 16.1291 1.29734 15.075 1.53613 14.3379C1.78429 13.6034 2.24198 12.4604 2.56348 11.8174L2.56543 11.8115C2.87979 11.1632 3.4461 10.1799 3.80762 9.64258L3.81152 9.6377C4.16933 9.09108 4.72479 8.32795 5.03223 7.96289L5.03711 7.95703C5.33816 7.58803 5.97522 6.89096 6.43262 6.43359C6.889 5.97727 7.57464 5.35135 7.95508 5.03906C8.32431 4.73786 9.09181 4.17941 9.6416 3.80957C10.1748 3.45091 11.1539 2.89655 11.8096 2.56836C12.4571 2.25442 13.599 1.78747 14.3301 1.54004C15.066 1.30138 16.1432 1.01179 16.71 0.894531C17.2846 0.775653 18.0918 0.6466 18.4932 0.597656C18.7827 0.562352 19.3887 0.530566 19.9941 0.512695L20.5879 0.5H20.5908Z" stroke="#1D1D1D"/>
<path d="M11.9364 12.1811C11.6526 12.5256 11.2675 13.1337 11.0851 13.5188C10.8925 13.914 10.6898 14.5525 10.629 14.9375C10.5581 15.353 10.5378 15.9915 10.5783 16.4576C10.6189 16.9339 10.7709 17.6433 10.9533 18.1804C11.1256 18.677 11.4702 19.4573 11.7235 19.9032C11.987 20.3491 12.5343 21.1902 12.9498 21.778C13.3653 22.3658 13.9329 23.1157 14.2065 23.4501C14.4801 23.7845 15.1693 24.5345 15.7368 25.102C16.3044 25.6796 17.1354 26.4397 17.5813 26.7943C18.0272 27.149 18.767 27.6659 19.2231 27.9496C19.6893 28.2334 20.3278 28.5881 20.6419 28.7299C20.9662 28.8718 21.7061 29.1657 22.2939 29.3887C22.8817 29.6116 23.7735 29.9055 24.2701 30.0474C24.8174 30.1994 25.5876 30.321 26.1957 30.3615C26.9659 30.4021 27.3713 30.3717 27.8679 30.25C28.2327 30.1588 28.8205 29.9055 29.1853 29.6927C29.5502 29.4799 30.0671 29.0846 30.3306 28.811C30.6447 28.4969 30.8981 28.1118 31.0298 27.7571C31.1413 27.4531 31.2629 26.8045 31.3035 26.318L31.3643 25.4465C28.3036 23.9366 27.1584 23.3995 26.8544 23.288C26.5504 23.1765 26.2159 23.1157 26.1146 23.1461C26.0234 23.1765 25.6079 23.6224 25.2025 24.1392C24.787 24.6459 24.2904 25.254 24.0775 25.4769C23.7431 25.8417 23.6722 25.8722 23.3783 25.8012C23.1958 25.7607 22.5574 25.4769 21.9392 25.183C21.3209 24.8892 20.419 24.352 19.9224 23.9974C19.4258 23.6427 18.5846 22.8927 18.0475 22.3354C17.5104 21.778 16.7908 20.8862 16.4361 20.3592C16.0409 19.7512 15.8078 19.2952 15.8078 19.1229C15.8078 18.9303 16.0003 18.6061 16.426 18.1095C16.7705 17.7041 17.1557 17.1569 17.2874 16.8934C17.4394 16.5995 17.5104 16.3158 17.4698 16.184C17.4394 16.0523 17.0138 14.9983 16.5374 13.8329C15.98 12.4952 15.5544 11.6035 15.372 11.421C15.1085 11.1474 15.0578 11.1373 14.1558 11.1373C13.4363 11.1474 13.1424 11.188 12.8383 11.34C12.6357 11.4514 12.2303 11.8264 11.9364 12.1811Z" fill="#1D1D1D"/>
</svg>
