<svg width="198" height="150" viewBox="0 0 198 150" fill="none" xmlns="http://www.w3.org/2000/svg">
<path d="M137.389 4.61736C138.219 3.39889 139.817 1.85977 140.903 1.21847C141.926 0.57717 143.587 0 144.61 0C145.568 0 146.974 0.25652 147.805 0.57717C148.571 0.83369 150.169 2.05216 151.383 3.27063C152.597 4.4891 154.323 7.0543 155.153 8.9782C156.559 12.1206 156.687 13.1466 156.495 18.277C156.24 22.7661 155.856 24.7542 154.642 27.2552C153.684 29.115 152.15 31.0389 150.808 31.9367C149.466 32.7704 147.613 33.3476 146.207 33.3476C144.865 33.3476 143.012 32.9628 142.053 32.4498C141.031 31.9367 139.625 30.8465 138.858 30.0128C138.092 29.2433 136.75 26.9346 135.855 25.0107C134.577 22.3172 134.194 20.4575 134.194 16.9944C134.194 14.5575 134.577 11.2227 135.024 9.61949C135.472 8.01624 136.558 5.7717 137.389 4.61736Z" fill="url(#paint0_linear_254_1512)"/>
<path d="M167.742 11.0945C169.467 9.55536 172.087 7.88799 173.493 7.37495C174.899 6.86191 177.072 6.60539 178.286 6.73365C179.5 6.92604 181.161 7.50321 181.928 8.01625C182.759 8.52929 183.973 10.1967 184.676 11.6717C185.379 13.2108 185.954 15.4553 185.954 16.6738C185.954 17.8923 185.507 20.6498 184.995 22.7661C184.42 24.8824 183.142 27.8965 182.12 29.4998C181.161 31.103 179.372 33.1552 178.158 34.053C177.008 34.9508 175.091 36.1693 174.004 36.8106C172.854 37.3878 170.681 37.8367 169.212 37.8367C167.614 37.8367 165.569 37.2595 164.355 36.5541C163.269 35.8487 161.863 34.3095 161.288 33.1552C160.521 31.6161 160.329 29.9487 160.521 26.6139C160.713 23.5357 161.416 20.8422 162.694 18.0205C163.972 15.1988 165.569 13.0184 167.742 11.0945Z" fill="url(#paint1_linear_254_1512)"/>
<path d="M114.384 26.6781C115.598 24.6259 117.451 22.3814 118.538 21.6759C119.816 20.8422 121.094 20.5857 122.372 20.8422C123.394 21.0346 124.992 21.6759 125.886 22.3814C126.781 23.0227 128.378 24.9466 129.401 26.6139C131.126 29.3715 131.318 30.3976 131.51 35.528C131.701 40.5943 131.51 41.7486 130.232 44.2497C129.401 45.8529 127.739 47.7768 126.525 48.6105C125.311 49.3801 123.394 50.0855 122.372 50.0855C121.349 50.0855 119.432 49.3801 118.218 48.5464C116.876 47.6486 115.215 45.5964 114.065 43.2877C112.467 40.1454 112.147 38.7986 112.147 35.015C112.211 31.0389 112.467 30.0128 114.384 26.6781Z" fill="url(#paint2_linear_254_1512)"/>
<path d="M181.289 40.4019C182.312 39.1834 184.484 37.516 186.018 36.7465C187.551 35.9128 189.852 35.2715 191.066 35.2715C192.28 35.2074 194.006 35.7845 194.9 36.4258C195.795 37.0671 196.881 38.478 197.328 39.5041C197.84 40.6584 198.095 42.9671 197.967 45.5964C197.84 48.6746 197.265 50.7268 195.859 53.5485C194.708 55.8572 192.855 58.1659 191.258 59.4485C189.724 60.6028 187.36 61.8213 185.954 62.2061C183.909 62.7191 182.951 62.655 181.033 61.693C179.755 61.1159 178.094 59.7691 177.391 58.8072C176.369 57.4604 176.049 56.0496 176.113 53.3561C176.156 50.9192 176.688 48.525 177.711 46.1736C178.605 44.2497 180.203 41.6203 181.289 40.4019Z" fill="url(#paint3_linear_254_1512)"/>
<path d="M136.75 49.9572C140.775 47.3279 145.504 44.6986 147.293 44.0573C149.466 43.3519 151.447 43.0953 153.364 43.3519C154.962 43.5442 157.39 44.3779 158.796 45.2116C160.202 45.9812 162.438 48.2257 163.78 50.0855C165.122 52.0094 168.381 56.8833 171.001 60.9235C173.621 64.9637 176.496 69.8375 177.327 71.6332C178.222 73.4929 179.244 76.5712 179.564 78.3668C180.075 80.9961 180.011 82.4711 179.308 84.9722C178.733 86.9602 177.519 88.9483 176.241 90.1667C175.091 91.3211 173.493 92.5395 172.726 92.9243C171.896 93.3091 169.915 93.6298 168.253 93.6298C165.825 93.6298 163.716 92.9243 158.476 90.3591C154.77 88.5635 150.616 86.6396 149.21 86.1265C147.485 85.4211 142.948 84.9722 134.833 84.7157C124.992 84.3309 122.563 84.0744 120.455 83.0483C119.049 82.3429 117.387 80.8038 116.621 79.5212C115.726 77.9179 115.343 76.1223 115.343 73.1082C115.343 69.7093 115.662 68.3625 117.068 66.0539C117.963 64.4506 119.88 62.1419 121.222 60.8593C122.563 59.5767 124.928 57.6528 126.525 56.6268C128.123 55.5365 132.724 52.5224 136.75 49.9572Z" fill="url(#paint4_linear_254_1512)"/>
<path d="M44.6673 62.2061C45.6897 60.6028 47.479 58.6789 48.6292 57.9094C50.035 56.9474 51.7604 56.4344 53.5496 56.4344C55.7862 56.4344 56.6808 56.8191 58.8535 58.8072C60.451 60.3463 61.9207 62.5267 62.6876 64.5789C63.5183 66.8876 63.9017 69.581 63.9017 72.9158C63.9017 76.8918 63.5822 78.6233 62.2402 81.4451C61.3456 83.369 60.0037 85.6776 59.2369 86.4472C58.47 87.2809 57.0642 88.3711 56.1057 88.8841C55.0833 89.3972 53.2301 89.782 51.9521 89.782C50.4823 89.782 48.6292 89.2048 47.2873 88.3711C45.9453 87.4733 44.4117 85.5494 43.4532 83.6896C42.3029 81.2527 41.8556 79.1364 41.6639 75.0321C41.4722 72.018 41.6639 68.5549 42.0473 67.3365C42.4946 66.118 43.6449 63.8093 44.6673 62.2061Z" fill="url(#paint5_linear_254_1512)"/>
<path d="M13.6111 67.4647C14.1862 66.3745 15.6559 64.8354 16.8061 64.0658C18.3398 63.1039 19.49 62.8474 21.5988 63.1039C23.0685 63.3604 25.369 64.0658 26.7109 64.7071C27.9889 65.4126 30.1616 67.0799 31.4396 68.4267C32.7177 69.7734 34.5708 72.5951 35.5932 74.7114C36.8074 77.4049 37.3825 79.9059 37.5742 83.0483C37.7659 86.5755 37.5742 87.9863 36.6796 89.6537C35.9767 90.8722 34.6347 92.3472 33.5484 93.0526C32.4621 93.6939 30.4172 94.271 28.9475 94.271C27.4138 94.271 25.1134 93.6939 23.8353 93.0526C22.4934 92.4113 20.2568 90.7439 18.9149 89.3972C17.5091 87.9863 15.5281 85.0363 14.4418 82.7277C12.9081 79.3929 12.5247 77.6614 12.5247 74.0701C12.5247 70.9919 12.8442 68.9397 13.6111 67.4647Z" fill="url(#paint6_linear_254_1512)"/>
<path d="M68.6943 82.9842C69.7806 81.2527 71.6338 79.2005 72.8479 78.3668C74.5733 77.2125 75.5957 76.956 77.321 77.2125C78.5352 77.4049 80.1966 78.0462 81.0274 78.5592C81.7942 79.0723 83.2 81.1885 84.1585 83.1766C85.5005 86.0624 85.8839 87.9222 85.8839 91.4493C85.9478 95.233 85.6283 96.5156 84.0307 99.7221C83.0083 101.774 81.283 104.019 80.3244 104.788C79.1103 105.686 77.5767 106.135 75.7235 106.135C73.8704 106.135 72.3367 105.686 71.1226 104.788C70.1641 104.019 68.7582 102.48 68.0553 101.261C67.0329 99.4656 66.7773 97.9265 66.7773 92.6037C66.7773 86.5113 66.9051 85.9983 68.6943 82.9842Z" fill="url(#paint7_linear_254_1512)"/>
<path d="M0.958525 95.5536C1.46974 94.4634 2.55607 93.1808 3.38679 92.6678C4.15361 92.1548 5.94286 91.7059 7.34869 91.7059C9.07404 91.7059 10.8633 92.283 12.7803 93.5015C14.3779 94.5276 16.2949 96.0667 17.0618 96.9004C17.8286 97.7341 19.1705 100.043 20.0651 101.967C20.9598 103.891 21.8544 106.905 22.0461 108.7C22.3656 111.073 22.1739 112.484 21.2793 114.087C20.6402 115.306 19.4261 116.845 18.5315 117.55C17.573 118.256 15.8476 118.769 14.3779 118.769C12.972 118.769 10.8633 118.32 9.77696 117.743C8.62673 117.165 6.51797 115.498 5.04823 113.959C3.6424 112.484 1.91705 109.726 1.21413 107.867C0.575115 106.071 0 102.929 0 101.005C0 99.0808 0.447312 96.5797 0.958525 95.5536Z" fill="url(#paint8_linear_254_1512)"/>
<path d="M37.7659 102.608C38.98 101.774 40.961 100.684 42.1751 100.235C43.3892 99.7862 45.6897 99.5297 47.2873 99.658C48.8848 99.7862 51.7604 100.684 53.6774 101.646C55.5945 102.608 58.4701 104.339 60.0676 105.494C61.6651 106.584 65.2436 108.957 68.0553 110.688C70.8031 112.42 74.7011 115.242 76.5542 117.037C78.4713 118.769 80.6439 121.398 81.3469 122.809C82.3054 124.605 82.6888 126.593 82.7527 129.543C82.7527 132.557 82.4332 134.288 81.4747 135.891C80.7717 137.11 79.0464 138.649 77.6406 139.419C75.4679 140.509 73.423 140.765 63.2627 141.15C56.7447 141.342 50.8657 141.791 50.1628 142.048C49.4599 142.304 45.5619 144.036 41.5361 145.96C37.5103 147.884 33.165 149.615 31.9508 149.808C30.7367 150.064 28.628 150.064 27.3499 149.808C25.6885 149.551 24.027 148.525 22.1739 146.665C20.1929 144.741 19.1705 143.138 18.7232 141.086C18.2759 139.162 18.2759 136.982 18.6593 134.673C18.9788 132.749 20.0651 129.543 20.9598 127.619C21.8544 125.695 23.9631 122.039 25.6246 119.602C27.286 117.101 30.1616 112.676 32.0787 109.662C33.9957 106.648 36.5518 103.506 37.7659 102.608Z" fill="url(#paint9_linear_254_1512)"/>
<defs>
<linearGradient id="paint0_linear_254_1512" x1="-972" y1="442.5" x2="-479.652" y2="303.086" gradientUnits="userSpaceOnUse">
<stop stop-color="#F3AECA"/>
<stop offset="1" stop-color="#F9F9F9"/>
</linearGradient>
<linearGradient id="paint1_linear_254_1512" x1="-972" y1="442.5" x2="-479.652" y2="303.086" gradientUnits="userSpaceOnUse">
<stop stop-color="#F3AECA"/>
<stop offset="1" stop-color="#F9F9F9"/>
</linearGradient>
<linearGradient id="paint2_linear_254_1512" x1="-972" y1="442.5" x2="-479.652" y2="303.086" gradientUnits="userSpaceOnUse">
<stop stop-color="#F3AECA"/>
<stop offset="1" stop-color="#F9F9F9"/>
</linearGradient>
<linearGradient id="paint3_linear_254_1512" x1="-972" y1="442.5" x2="-479.652" y2="303.086" gradientUnits="userSpaceOnUse">
<stop stop-color="#F3AECA"/>
<stop offset="1" stop-color="#F9F9F9"/>
</linearGradient>
<linearGradient id="paint4_linear_254_1512" x1="-972" y1="442.5" x2="-479.652" y2="303.086" gradientUnits="userSpaceOnUse">
<stop stop-color="#F3AECA"/>
<stop offset="1" stop-color="#F9F9F9"/>
</linearGradient>
<linearGradient id="paint5_linear_254_1512" x1="-972" y1="442.5" x2="-479.652" y2="303.086" gradientUnits="userSpaceOnUse">
<stop stop-color="#F3AECA"/>
<stop offset="1" stop-color="#F9F9F9"/>
</linearGradient>
<linearGradient id="paint6_linear_254_1512" x1="-972" y1="442.5" x2="-479.652" y2="303.086" gradientUnits="userSpaceOnUse">
<stop stop-color="#F3AECA"/>
<stop offset="1" stop-color="#F9F9F9"/>
</linearGradient>
<linearGradient id="paint7_linear_254_1512" x1="-972" y1="442.5" x2="-479.652" y2="303.086" gradientUnits="userSpaceOnUse">
<stop stop-color="#F3AECA"/>
<stop offset="1" stop-color="#F9F9F9"/>
</linearGradient>
<linearGradient id="paint8_linear_254_1512" x1="-972" y1="442.5" x2="-479.652" y2="303.086" gradientUnits="userSpaceOnUse">
<stop stop-color="#F3AECA"/>
<stop offset="1" stop-color="#F9F9F9"/>
</linearGradient>
<linearGradient id="paint9_linear_254_1512" x1="-972" y1="442.5" x2="-479.652" y2="303.086" gradientUnits="userSpaceOnUse">
<stop stop-color="#F3AECA"/>
<stop offset="1" stop-color="#F9F9F9"/>
</linearGradient>
</defs>
</svg>
