<svg width="128" height="34" viewBox="0 0 128 34" fill="none" xmlns="http://www.w3.org/2000/svg">
<path d="M46.7418 22.2508V20.5448H47.3815C47.6695 20.5448 47.9064 20.5029 48.0923 20.4191C48.2782 20.3352 48.4277 20.2149 48.5407 20.0582C48.6573 19.9015 48.7539 19.7192 48.8305 19.5114L48.9781 19.1342L44.9757 10.8998H47.0972L49.8857 16.8924L52.297 10.8998H54.3857L50.5255 20.0309C50.3468 20.4245 50.1409 20.7909 49.9076 21.1299C49.6743 21.4652 49.3699 21.7368 48.9945 21.9446C48.6227 22.1487 48.1379 22.2508 47.5401 22.2508H46.7418ZM55.8305 22.0977V10.8998H60.0297C60.89 10.8998 61.6117 11.0602 62.1949 11.3809C62.7818 11.7017 63.2247 12.1428 63.5236 12.7041C63.8261 13.2618 63.9774 13.8961 63.9774 14.6069C63.9774 15.325 63.8261 15.9629 63.5236 16.5206C63.221 17.0783 62.7745 17.5175 62.184 17.8383C61.5935 18.1554 60.8663 18.314 60.0024 18.314H57.2193V16.6463H59.729C60.232 16.6463 60.6439 16.5589 60.9647 16.3839C61.2855 16.2089 61.5224 15.9683 61.6755 15.6622C61.8322 15.356 61.9106 15.0042 61.9106 14.6069C61.9106 14.2096 61.8322 13.8596 61.6755 13.5571C61.5224 13.2545 61.2836 13.0194 60.9592 12.8517C60.6385 12.6804 60.2247 12.5948 59.7181 12.5948H57.859V22.0977H55.8305ZM65.7394 22.0977V10.8998H72.9404V12.6002H67.7679V15.2247H69.9276C70.7843 15.2247 71.5188 15.3651 72.1311 15.6457C72.7472 15.9228 73.2192 16.3146 73.5473 16.8213C73.8753 17.328 74.0394 17.924 74.0394 18.6093C74.0394 19.2982 73.8753 19.9051 73.5473 20.43C73.2192 20.9513 72.7472 21.3595 72.1311 21.6548C71.5188 21.95 70.7843 22.0977 69.9276 22.0977H65.7394ZM67.7679 20.4355H69.9276C70.3796 20.4355 70.7624 20.3498 71.0759 20.1785C71.3894 20.0072 71.6263 19.7812 71.7867 19.5005C71.9507 19.2198 72.0327 18.9154 72.0327 18.5874C72.0327 18.1135 71.8505 17.7107 71.4859 17.379C71.1251 17.0437 70.6056 16.876 69.9276 16.876H67.7679V20.4355ZM77.2517 22.0977H75.0864L79.0287 10.8998H81.5329L85.4806 22.0977H83.3154L80.3245 13.1962H80.237L77.2517 22.0977ZM77.3227 17.7071H83.2279V19.3365H77.3227V17.7071ZM86.9555 22.0977V10.8998H88.984V15.6403H94.1729V10.8998H96.2069V22.0977H94.1729V17.3407H88.984V22.0977H86.9555ZM98.4131 22.0977V10.8998H102.7C103.509 10.8998 104.182 11.0273 104.717 11.2825C105.257 11.534 105.66 11.8785 105.926 12.3159C106.195 12.7533 106.33 13.2491 106.33 13.8031C106.33 14.2588 106.243 14.6488 106.068 14.9732C105.893 15.294 105.658 15.5546 105.363 15.7551C105.067 15.9556 104.737 16.0996 104.373 16.1871V16.2964C104.77 16.3183 105.151 16.4404 105.516 16.6627C105.884 16.8815 106.185 17.1913 106.418 17.5923C106.651 17.9932 106.768 18.478 106.768 19.0467C106.768 19.6262 106.627 20.1475 106.347 20.6104C106.066 21.0697 105.643 21.4324 105.078 21.6985C104.513 21.9646 103.802 22.0977 102.946 22.0977H98.4131ZM100.442 20.4027H102.623C103.36 20.4027 103.89 20.2623 104.214 19.9816C104.542 19.6973 104.706 19.3328 104.706 18.8881C104.706 18.5564 104.624 18.2575 104.46 17.9914C104.296 17.7217 104.063 17.5102 103.761 17.3571C103.458 17.2004 103.097 17.122 102.678 17.122H100.442V20.4027ZM100.442 15.6622H102.448C102.798 15.6622 103.114 15.5984 103.394 15.4708C103.675 15.3396 103.895 15.1555 104.056 14.9185C104.22 14.678 104.302 14.3936 104.302 14.0656C104.302 13.6318 104.149 13.2746 103.843 12.9939C103.54 12.7132 103.09 12.5729 102.492 12.5729H100.442V15.6622ZM108.532 22.0977V10.8998H115.815V12.6002H110.561V15.6403H115.438V17.3407H110.561V20.3972H115.859V22.0977H108.532ZM117.393 12.6002V10.8998H126.327V12.6002H122.866V22.0977H120.854V12.6002H117.393Z" fill="#1D1D1D"/>
<path d="M11.0152 0H22.6576V33.6727H11.0152V0Z" fill="#1D1D1D"/>
<path d="M33.6727 11.0151V22.6575L0 22.6575L5.08906e-07 11.0151L33.6727 11.0151Z" fill="#1D1D1D"/>
<path d="M19.9346 8.64746L19.6699 9.08594L19.2383 8.81055L18.4102 8.28125L18.041 8.04492L18.2266 7.64844C18.3388 7.40787 18.5324 7.20544 18.7607 7.06055L18.7637 7.05859C18.8338 7.01478 18.9076 6.97626 18.9834 6.94434C19.3037 6.40269 19.8907 6.03824 20.5605 6.02637C20.5605 6.02533 20.5605 6.02539 20.5605 6.02539H20.5664C20.5688 6.02526 20.5713 6.02455 20.5742 6.02441C20.5802 6.02413 20.5874 6.02364 20.5957 6.02344C20.6123 6.02304 20.6335 6.02292 20.6592 6.02344C20.7109 6.02449 20.7813 6.0285 20.8701 6.03809C21.048 6.05731 21.301 6.09968 21.6309 6.19141C22.2903 6.37476 23.2583 6.75421 24.5596 7.53223L24.8975 7.71973C25.0108 7.77874 25.1261 7.83513 25.2432 7.88867L25.8584 8.16406C25.9641 8.20433 26.0867 8.22846 26.2188 8.22852C26.4113 8.22852 26.5927 8.17292 26.7471 8.08105L27.8867 7.2666L27.8926 7.26172L27.9004 7.25684C28.0705 7.1435 28.2613 7.08887 28.4639 7.08887H28.4697C29.0181 7.0953 29.4589 7.54292 29.459 8.08984C29.459 8.249 29.4215 8.40378 29.3486 8.54297L29.3477 8.54199C29.2442 8.74428 29.0772 8.89534 28.8838 8.98535L28.8848 8.98633L26.9932 9.89062C25.7444 10.5972 24.6989 10.9345 23.9531 11.0938C23.5796 11.1735 23.2822 11.2088 23.0732 11.2236C22.9688 11.231 22.8858 11.234 22.8271 11.2344C22.7982 11.2345 22.775 11.2338 22.7578 11.2334C22.7493 11.2332 22.7419 11.2326 22.7363 11.2324H22.7246C22.7246 11.2324 22.7246 11.2322 22.7246 11.2305C21.6024 11.216 20.5252 10.2956 20.6279 9.06641V9.06543C20.6585 8.70414 20.7956 8.41535 20.918 8.22266C20.9798 8.12522 21.0411 8.04837 21.0879 7.99414C21.1065 7.97261 21.1228 7.95416 21.1367 7.93945C20.8186 7.91793 20.5536 8.04334 20.3369 8.21387C20.2058 8.31706 20.1014 8.42943 20.0303 8.51758C19.9951 8.56111 19.9694 8.59754 19.9531 8.62109C19.9451 8.63279 19.9395 8.64182 19.9365 8.64648L19.9346 8.64746Z" fill="#1D1D1D" stroke="white"/>
<path d="M22.7037 10.7881C21.8072 10.7881 21.004 10.0566 21.0788 9.16317C21.1223 8.64642 21.4741 8.31645 21.4741 8.31645C21.6671 8.08921 21.6982 7.96469 21.6982 7.89309C21.6982 7.68764 21.527 7.56001 21.3278 7.52265C20.1822 7.29541 19.4849 8.41295 19.4662 8.4472C19.4382 8.62152 19.4258 8.79896 19.4258 8.97951C19.4258 10.8784 20.9667 12.4193 22.8656 12.4193C24.4905 12.4193 25.854 11.2893 26.2151 9.77331C24.0765 10.8628 22.7037 10.7881 22.7037 10.7881Z" fill="white"/>
</svg>
