<svg width="25" height="18" viewBox="0 0 25 18" fill="none" xmlns="http://www.w3.org/2000/svg">
<path fill-rule="evenodd" clip-rule="evenodd" d="M3.90867 1.01484C-0.22301 15.4368 -0.280796 15.7836 0.210383 16.246C0.499312 16.5351 1.27942 16.8819 1.97285 17.0553C2.63738 17.1998 4.1976 17.3443 5.43999 17.3443C6.65349 17.3443 8.18481 17.1998 8.82045 17.0264C9.4561 16.853 10.2073 16.5061 10.4962 16.246C10.9585 15.7836 11.0163 15.09 10.9874 8.44257V1.15934C9.60056 0.118884 8.96492 -0.0256254 7.66474 0.00327631C6.6246 0.00327631 5.52667 0.205587 4.91992 0.523506L3.90867 1.01484Z" fill="white"/>
<path d="M3.90867 1.01484C-0.22301 15.4368 -0.280796 15.7836 0.210383 16.246C0.499312 16.5351 1.27942 16.8819 1.97285 17.0553C2.63738 17.1998 4.1976 17.3443 5.43999 17.3443C6.65349 17.3443 8.18481 17.1998 8.82045 17.0264C9.4561 16.853 10.2073 16.5061 10.4962 16.246C10.9585 15.7836 11.0163 15.09 10.9874 8.44257V1.15934C9.60056 0.118884 8.96492 -0.0256254 7.66474 0.00327631C6.6246 0.00327631 5.52667 0.205587 4.91992 0.523506L3.90867 1.01484Z" fill="white"/>
<path fill-rule="evenodd" clip-rule="evenodd" d="M17.2578 1.01484C13.1262 15.4368 13.0684 15.7836 13.5596 16.246C13.8485 16.5351 14.6286 16.8819 15.322 17.0553C15.9866 17.1998 17.5468 17.3443 18.7892 17.3443C20.0027 17.3443 21.534 17.1998 22.1696 17.0264C22.8053 16.853 23.5565 16.5061 23.8454 16.246C24.3077 15.7836 24.3655 15.09 24.3366 8.44257V1.15934C22.9497 0.118884 22.3141 -0.0256254 21.0139 0.00327631C19.9738 0.00327631 18.8758 0.205587 18.2691 0.523506L17.2578 1.01484Z" fill="white"/>
<path d="M17.2578 1.01484C13.1262 15.4368 13.0684 15.7836 13.5596 16.246C13.8485 16.5351 14.6286 16.8819 15.322 17.0553C15.9866 17.1998 17.5468 17.3443 18.7892 17.3443C20.0027 17.3443 21.534 17.1998 22.1696 17.0264C22.8053 16.853 23.5565 16.5061 23.8454 16.246C24.3077 15.7836 24.3655 15.09 24.3366 8.44257V1.15934C22.9497 0.118884 22.3141 -0.0256254 21.0139 0.00327631C19.9738 0.00327631 18.8758 0.205587 18.2691 0.523506L17.2578 1.01484Z" fill="white"/>
</svg>
