<svg width="27" height="27" viewBox="0 0 27 27" fill="none" xmlns="http://www.w3.org/2000/svg">
<path fill-rule="evenodd" clip-rule="evenodd" d="M13.2022 0.5C13.6711 0.5 14.3338 0.525006 14.6651 0.562514C15.0027 0.593771 15.5591 0.681291 15.9029 0.750056C16.2468 0.818822 16.9095 1.00636 17.3721 1.1564C17.8347 1.31268 18.5537 1.6065 18.9663 1.80654C19.3789 2.00659 19.9978 2.36292 20.3417 2.59422C20.6855 2.81927 21.1794 3.18185 21.4357 3.3944C21.692 3.6007 22.1234 4.00079 22.3922 4.27585C22.6673 4.55091 23.0549 4.97601 23.2487 5.21356C23.4488 5.45111 23.7989 5.93247 24.0239 6.2763C24.2553 6.62013 24.6116 7.23902 24.8117 7.65161C25.018 8.0642 25.3055 8.78311 25.4618 9.24572C25.6119 9.70832 25.7932 10.3835 25.8682 10.7461C25.937 11.1086 26.0245 11.6588 26.062 11.9651C26.0933 12.2714 26.1245 12.8778 26.1245 13.3091C26.1245 13.7405 26.0933 14.3469 26.062 14.6532C26.0245 14.9595 25.937 15.5096 25.8682 15.8722C25.7932 16.2348 25.6369 16.8349 25.5181 17.2163C25.3931 17.5976 25.1618 18.2102 24.9867 18.5916C24.8179 18.9729 24.5116 19.5605 24.299 19.9044C24.0865 20.2482 23.7676 20.7233 23.5863 20.9671C23.4113 21.2109 23.0612 21.6298 22.8111 21.9048C22.561 22.1799 22.1422 22.5987 21.8796 22.8363C21.617 23.0676 21.2107 23.4114 20.9668 23.5927C20.723 23.774 20.2354 24.0991 19.8728 24.3179C19.5102 24.5367 18.9225 24.843 18.5599 25.0055C18.1973 25.1681 17.5972 25.3931 17.2158 25.5181C16.8345 25.6369 16.2468 25.7932 15.9029 25.862C15.5591 25.9307 15.0027 26.0245 14.6651 26.0558C14.3338 26.0933 13.7148 26.1245 13.2897 26.1245C12.8709 26.1245 12.2707 26.0933 11.9644 26.062C11.658 26.0245 11.1079 25.937 10.7453 25.8682C10.3827 25.7932 9.75125 25.6244 9.33864 25.4931C8.92602 25.3556 8.23833 25.0743 7.80696 24.868C7.3756 24.6617 6.98174 24.4992 6.93172 24.4992C6.88171 24.4992 5.44381 24.868 3.74334 25.3118C2.04287 25.7557 0.642487 26.1183 0.629983 26.1058C0.61748 26.0995 0.992583 24.6992 2.30545 19.9044L1.93034 19.1855C1.73029 18.7916 1.44896 18.1727 1.31142 17.8101C1.18014 17.4476 0.992583 16.8724 0.905059 16.5286C0.817535 16.1848 0.698752 15.6472 0.648739 15.3408C0.592473 15.0345 0.529956 14.3281 0.511201 13.778C0.486194 13.1716 0.504949 12.4902 0.548711 12.0589C0.592473 11.665 0.679997 11.0586 0.748766 10.7148C0.823787 10.371 1.00509 9.70832 1.15513 9.24572C1.31142 8.78311 1.599 8.0642 1.80531 7.65161C2.00536 7.23902 2.36171 6.62013 2.59303 6.2763C2.81809 5.93247 3.16818 5.45111 3.36824 5.21356C3.56204 4.97601 3.96215 4.53841 4.24973 4.25084C4.53731 3.96328 4.96868 3.56944 5.2125 3.3694C5.45006 3.1756 5.93145 2.82552 6.27529 2.59422C6.61914 2.36292 7.23806 2.01284 7.65067 1.80654C8.06328 1.6065 8.78223 1.31268 9.24486 1.1564C9.70749 1.00636 10.3827 0.825073 10.7453 0.750056C11.1079 0.675039 11.6143 0.593771 11.8706 0.562514C12.1269 0.531257 12.7271 0.506251 13.196 0.5H13.2022Z" stroke="#1D1D1D"/>
<path d="M7.86323 8.01419C7.68818 8.22674 7.45062 8.60182 7.33808 8.83938C7.2193 9.08318 7.09427 9.47702 7.05676 9.71457C7.01299 9.97088 7.00049 10.3647 7.0255 10.6523C7.05051 10.9461 7.14428 11.3837 7.25681 11.715C7.36309 12.0213 7.57565 12.5027 7.73194 12.7778C7.89449 13.0528 8.23208 13.5717 8.4884 13.9343C8.74472 14.2969 9.09482 14.7595 9.26362 14.9658C9.43241 15.1721 9.85753 15.6347 10.2076 15.9847C10.5577 16.3411 11.0704 16.8099 11.3454 17.0287C11.6205 17.2475 12.0769 17.5663 12.3582 17.7414C12.6458 17.9164 13.0397 18.1352 13.2335 18.2227C13.4335 18.3103 13.8899 18.4916 14.2525 18.6291C14.6151 18.7666 15.1652 18.9479 15.4716 19.0354C15.8092 19.1292 16.2843 19.2042 16.6594 19.2292C17.1345 19.2542 17.3846 19.2355 17.6909 19.1605C17.916 19.1042 18.2786 18.9479 18.5037 18.8166C18.7287 18.6853 19.0476 18.4415 19.2101 18.2728C19.4039 18.079 19.5602 17.8414 19.6415 17.6226C19.7103 17.4351 19.7853 17.035 19.8103 16.7349L19.8478 16.1973C17.9598 15.2658 17.2533 14.9345 17.0658 14.8657C16.8782 14.797 16.6719 14.7595 16.6094 14.7782C16.5531 14.797 16.2968 15.072 16.0467 15.3909C15.7904 15.7034 15.4841 16.0785 15.3528 16.216C15.1465 16.4411 15.1027 16.4598 14.9214 16.4161C14.8089 16.3911 14.415 16.216 14.0337 16.0347C13.6523 15.8535 13.0959 15.5221 12.7896 15.3033C12.4833 15.0845 11.9644 14.6219 11.633 14.2781C11.3017 13.9343 10.8578 13.3842 10.639 13.0591C10.3952 12.684 10.2514 12.4027 10.2514 12.2964C10.2514 12.1776 10.3702 11.9776 10.6327 11.6713C10.8453 11.4212 11.0829 11.0836 11.1641 10.9211C11.2579 10.7398 11.3017 10.5648 11.2767 10.4835C11.2579 10.4022 10.9953 9.75208 10.7015 9.03317C10.3577 8.20798 10.0951 7.65786 9.98256 7.54534C9.82002 7.37655 9.78876 7.3703 9.23236 7.3703C8.78848 7.37655 8.60719 7.40155 8.41963 7.49533C8.2946 7.56409 8.04453 7.79539 7.86323 8.01419Z" fill="#1D1D1D"/>
</svg>
