<svg width="53" height="53" viewBox="0 0 53 53" fill="none" xmlns="http://www.w3.org/2000/svg">
<path d="M26.5 0C41.1355 0 53 11.8645 53 26.5C53 41.1355 41.1355 53 26.5 53C11.8645 53 0 41.1355 0 26.5C0 11.8645 11.8645 0 26.5 0ZM19.5996 17.4004C18.7161 17.4006 18 18.1165 18 19C18 19.8835 18.7161 20.5994 19.5996 20.5996H30.1367L16.8682 33.8682C16.2433 34.493 16.2433 35.507 16.8682 36.1318C17.493 36.7567 18.507 36.7567 19.1318 36.1318L32.4004 22.8633V33.4004C32.4006 34.2839 33.1165 35 34 35C34.8835 35 35.5994 34.2839 35.5996 33.4004V19C35.5996 18.1163 34.8837 17.4004 34 17.4004H19.5996Z" fill="white"/>
</svg>
